/* XPM */
static char *a8063a6b22d84d36af76fd4ea490421bjQRIUpuRBvEIoSVJ[] = {
/* columns rows colors chars-per-pixel */
"64 64 12 1 ",
"  c None",
". c black",
"X c #005278",
"o c #2C7B75",
"O c #675644",
"+ c #FF7406",
"@ c #F48D64",
"# c #E5D357",
"$ c #10BFEE",
"% c #10D2EE",
"& c #EAEEB1",
"* c #E8F7D6",
/* pixels */
"                                                                ",
"                                                                ",
"                                                                ",
"                                                                ",
"                                                                ",
"                                                                ",
"                                                                ",
"                                                                ",
"                                                                ",
"                                                                ",
"                                                                ",
"                                                                ",
"                                                                ",
"                                                                ",
"                                                                ",
"                                                                ",
"                                                                ",
"                                                                ",
"                                                                ",
"                                                                ",
"                                                                ",
"                                                                ",
"                                                                ",
"                                                                ",
"                                                                ",
"                                                                ",
"                                                                ",
"                                                                ",
"                                                                ",
"                                                                ",
"                                                                ",
"                                                                ",
"                                             .......            ",
"                                           ..XXXXXXo..          ",
"                                          .XoooXXXXXoo.         ",
"                                         .ooooooXXXXXoo.        ",
"                                        .ooooXXXXXXXXXo.        ",
"                                        $XX$%ooooXXXX.Xo.       ",
"                                       .X$$XXXXXXoXXXX.X.       ",
"                                       .XXX*###+XXoXXX.X.       ",
"                                       .***.....+XoXXX..        ",
"                                       .........+XXXXX.         ",
"                                        ..&@....+XXXX.          ",
"                                        ...&@...+XXXX.          ",
"                                       .#......+XXXX.           ",
"                                       .#..@@.+Xo....           ",
"                                       .o#####Xo.*##.           ",
"                                        .o...XoX.+*##.          ",
"                                        .XooooXo..+**#.         ",
"                                         .XXXXo.XX.*++.         ",
"                                          .....ooXX...          ",
"                                          .ooX..ooX.Xo.         ",
"                                           .XXX.+##..o.         ",
"                                           .ooX+...#.oo.        ",
"                                           ##...&&@..Xo.        ",
"                                           .Xoo..&@...oo.       ",
"                                           ..oo.&@....oo.       ",
"                                           .X.........oo.       ",
"                                          ............ooX.      ",
"                                        OO.##+..+....XooX.      ",
"                                       OOO..++.#++...XooX.      ",
"                                       OOO.##+.OOO..XooXX.O     ",
"                                       OOOOOOOOOOO.XooXX.OO     ",
"                                        OOOOOOOOOO......OO      "
};
