/* XPM */
static char *_c56bd03eb8c40518737cd27891187aeJbNmxkOGkH0pzBEw[] = {
/* columns rows colors chars-per-pixel */
"64 64 12 1 ",
"  c None",
". c black",
"X c #005278",
"o c #2C7B75",
"O c #675644",
"+ c #FF7406",
"@ c #F48D64",
"# c #E5D357",
"$ c #10BFEE",
"% c #10D2EE",
"& c #EAEEB1",
"* c #E8F7D6",
/* pixels */
"                                                                ",
"                                                                ",
"                                                                ",
"                                                                ",
"                                                                ",
"                                                                ",
"                                                                ",
"                                                                ",
"                                                                ",
"                                                                ",
"                                                                ",
"                                                                ",
"                                                                ",
"                                                                ",
"                                                                ",
"                                                                ",
"                                                                ",
"                                                                ",
"                                                                ",
"                                                                ",
"                                                                ",
"                                                                ",
"                                                                ",
"                                                                ",
"                                                                ",
"                                                                ",
"                                                                ",
"                                                                ",
"                                                                ",
"                                                                ",
"                                                                ",
"                                                                ",
"                                                                ",
"            .......                                             ",
"          ..oXXXXXX..                                           ",
"         .ooXXXXXoooX.                                          ",
"        .ooXXXXXoooooo.                                         ",
"        .oXXXXXXXXXoooo.                                        ",
"       .oX.XXXXoooo%$XX$                                        ",
"       .X.XXXXoXXXXXX$$X.                                       ",
"       .X.XXXoXX+###*XXX.                                       ",
"        ..XXXoX+.....***.                                       ",
"         .XXXXX+.........                                       ",
"          .XXXX+....@&..                                        ",
"          .XXXX+...@&...                                        ",
"           .XXXX+......#.                                       ",
"           ....oX+.@@..#.                                       ",
"           .##*.oX#####o.                                       ",
"          .##*+.XoX...o.                                        ",
"         .#**+..oXooooX.                                        ",
"         .++*.XX.oXXXX.                                         ",
"          ...XXoo.....                                          ",
"         .oX.Xoo..Xoo.                                          ",
"         .o..##+.XXX.                                           ",
"        .oo.#...+Xoo.                                           ",
"        .oX..@&&...##                                           ",
"       .oo...@&..ooX.                                           ",
"       .oo....@&.oo..                                           ",
"       .oo.......o.X.                                           ",
"      .Xoo..........+O                                          ",
"      .XooX...+##..+.OOO                                        ",
"      .XooX...++..++#.OOO                                       ",
"     O.XXooX..+##.OOOOOOO                                       ",
"     OO.XXooX..OOOOOOOOOO                                       "
};
