/* XPM */
static char *result[] = {
/* columns rows colors chars-per-pixel */
"64 64 12 1 ",
"  c black",
". c #005278",
"X c #2C7B75",
"o c #675644",
"O c #FF7406",
"+ c #F48D64",
"@ c #E5D357",
"# c #10BFEE",
"$ c #E2D086",
"% c #EAEEB1",
"& c #E8F7D6",
"* c None",
/* pixels */
"**************    **********************************************",
"************  ....  ********************************************",
"*********** XXXX...X *******************************************",
"********** XXXXXX...X ******************************************",
"********* XXXXXXX....X *****************************************",
"********* XXXXXX.....X *****************************************",
"******** XXXX.........X ****************************************",
"******** XXX###..####XX ****************************************",
"******** XX$&&####&&$.X ****************************************",
"******** X$   &&&&   $X ****************************************",
"******** XO          OX ****************************************",
"******** XO  +%  %+  OX ****************************************",
"******** XO   +%%+   OX ****************************************",
"********  XO +    + OX  ****************************************",
"******* @@ .@ ++++ @X @@ ***************************************",
"****** @@& .X@@@@@@X. &@@ **************************************",
"***** @&&O .X.    .X. O&&@ *************************************",
"***** OO& X .#....#. X &OO *************************************",
"******   XX  .####.  XX   **************************************",
"******  .X            X.  **************************************",
"******  @@O  ..XX..  O@@  **************************************",
"***** .@   O .XXXX. O   @. *************************************",
"***** . +%% .  @@  . %%+ . *************************************",
"***** . +%  ........  %+ . *************************************",
"**** X.  +% X.    XX %+  .X ************************************",
"**** XX     XXX .XXX     XX ************************************",
"**** XX      XX  XX      XX ************************************",
"**** XX                  XX ************************************",
"**** XXX   oo O O@@ o   XXX ************************************",
"**** .XX  oo @O OO  oo  XX. ************************************",
"***** .XX ooooo O@@ oo XX. *************************************",
"******   oooooooooooooo   **************************************",
"****************************************************************",
"****************************************************************",
"****************************************************************",
"****************************************************************",
"****************************************************************",
"****************************************************************",
"****************************************************************",
"****************************************************************",
"****************************************************************",
"****************************************************************",
"****************************************************************",
"****************************************************************",
"****************************************************************",
"****************************************************************",
"****************************************************************",
"****************************************************************",
"****************************************************************",
"****************************************************************",
"****************************************************************",
"****************************************************************",
"****************************************************************",
"****************************************************************",
"****************************************************************",
"****************************************************************",
"****************************************************************",
"****************************************************************",
"****************************************************************",
"****************************************************************",
"****************************************************************",
"****************************************************************",
"****************************************************************",
"****************************************************************"
};
