/* XPM */
static char *result[] = {
/* columns rows colors chars-per-pixel */
"64 64 43 1 ",
"  c black",
". c #23160B",
"X c #2F1C0E",
"o c #341E0D",
"O c #3B2715",
"+ c #081526",
"@ c #051B33",
"# c #081A32",
"$ c #0B253E",
"% c #082340",
"& c #122A44",
"* c #13314B",
"= c #183851",
"- c #1D3F58",
"; c #203E58",
": c #1D4056",
"> c #1F4359",
", c #254A5D",
"< c #244362",
"1 c #204B6D",
"2 c #2F5363",
"3 c #285670",
"4 c #315B73",
"5 c #404143",
"6 c #475766",
"7 c #4A5E65",
"8 c #4A676D",
"9 c #4C656C",
"0 c #576B6C",
"q c #5A6E6F",
"w c #456B7E",
"e c #5A6F74",
"r c #5F7475",
"t c #805042",
"y c #447184",
"u c #558184",
"i c #67999A",
"p c #84A5AC",
"a c #95A7A9",
"s c #98AAAC",
"d c #99ABAD",
"f c #B7B8A6",
"g c #C5C4A8",
/* pixels */
"       5555                    555                    555555    ",
"ffffff   5  gggggggggggggggggg  5  gggggggggggggggggg  55    fff",
"ffffffff    ggggggggggggggggggg   gggggggggggggggggggg    ffffff",
"ffffffff gggggggggggggggggggggggg ggggggggggggggggggggg  fffffff",
"ffffffff gggggggggggggggggggggggg ggggggggggggggggggggg ffffffff",
"ffffffff  ggggggggggggggggggggggg ggggggggggggggggggggg ffffffff",
"fffffffff ggggggggggggggggggggggg ggggggggggggggggggggg ffffffff",
"fffffffff ggggggggggggggggggggggg ggggggggggggggggggggg ffffffff",
"fffffffff ggggggggggggggggggggggg ggggggggggggggggggggg ffffffff",
"fffffffff ggggggggggggggggggggggg ggggggggggggggggggggg ffffffff",
"fffffffff ggggggggggggggggggggggg ggggggggggggggggggggg ffffffff",
"fffffffff ggggggggggggggggggggggg ggggggggggggggggggggg ffffffff",
"fffffffff ggggggggggggggggggggggg qgggggggggggggggggggg ffffffff",
"fffffqqqq qgggggggggggggqqggggggq qqqgggggggggggggggggq qfffffff",
"fffqqqqqq qqqgggggggggqqqqqqqggqq qqqqqqgggggggggggggqq qqffffff",
"qqqqqqqqq qqqqqqqqqqqqqqqqqqqqqqq qqqqqqqqqqqqqqqqqqqqq qqqqqqqq",
"qqqqqqqqq qqqqqqqqqqqqqqqqqqqqqqq qqqqqqqqqqqqqqqqqqqqq qqqqqqqq",
"qqqqqqqqq qqqqqqqqqqqqqqqqqqqqqqq qqqqqqqqqqqqqqqqqqqqq qqqqqqqq",
"qqqqqqqqq qqqqqqqqqqqqqqqqqqqqqqq qqqqqqqqqqqqqqqqqqqqq qqqqqqqq",
"qqqqqqqqq qqqqqqqqqqqqqqqqqqqqqqq qqqqqqqqqqqqqqqqqqqqq qqqqqqqq",
"qqqqqqqqq qqqqqqqqqqqqqqqqqqqqqqq qqqqqqqqqqqqqqqqqqqqq qqqqqqqq",
"qqqqqqqqq qqqqqqqqqqqqqqqqqqqqqqq qqqqqqqqqqqqqqqqqqqqq qqqqqqqq",
"qqqqqqqq  qqqqqqqqqqqqqqqqqqqqqqq qqqqqqqqqqqqqqqqqqqqq  qqqqqqq",
"qqqqqqq  qqqqqqqqqqqqqqqqq          qqqqqqqqqqqqqqqqqqqq qqqqqqq",
"qqqqqq    qqqqqqqqqqqqqqq  tsssstss  qqqqqqqqqqqqqqqqqq   qqqqqq",
"       77                 ssttstsst0  qqqqqqqqqqqqqqqq  7       ",
"7777777777  777777777777  00stsstst00    qqqqqqqqq     777777777",
"77777777777 7777777777   d 0tssst00t  dd           7777777777777",
"77777777777 777777777   d0            0ddd  777777 7777777777777",
"uuuuuuuuuuu 9uuuuuu   a 0  OOOO  OOOO  00dd 777777 77777uuuuuuuu",
"uuuuuuuuuuu 99999   aaa   OOOOO  OOOOO  000   uu99 uuiiiiiiiiiuu",
"uuuuuuuuuuu 99999 aaarr  OOOOOO  OOOOOO  0  a 9u99 uiiuuuuuuuuuu",
"uuuuuuuuuuu 999   aarr  OOOOOOO  OOOOOOO   ra  u99 iiuuuuuuuuuuu",
"uuuuuuuuuuu 99  d   r  OOOOOOOO  OOOOOOOO  rra  99 iuuuuuuuuuuuu",
"uuuuuuuuuuu    ddee   OOOOOOOOO  OOOOOOOOO  raa  9 uuuuuuuuuuuuu",
"uuuuuuuuuuu  ddddee  OOOOOOOOOO  OOOOOOOOOO  r     uuuuuuuuuuuuu",
"uuuuuuuuuuu   dde   OOOOOOOOOOO  OOOOOOOOOOO   edd  uuuuuuuuuuuu",
"     uuuu     dde  OOOOOOOOOOOO  OOOOOOOOOOOO  eedd             ",
";;;;  uu   pp ee  OOOOOOOOOOOOO  OOOOOOOOOOOOO  ee pp ;;;;;;;;;;",
",ww;;    ; pp e  OOOOOOOOOOOOOO  OOOOOOOOOOOOOO  e pp ;;w,wwwww,",
",,ww;; ;;; pp   OOOOOOOOOOOOOOO  OOOOOOOOOOOOOOO   pp www,,,,,,,",
",,,,,, 222 8p  OOOOOOOOOOOOOOOO  OOOOOOOOOOOOOOOO  p8 ,,,,,,,,,,",
",,,,,, 222 8t OOOOOOOOOOOOOOOOO  OOOOOOOOOOOOOOOOO 88 ,,,,,,,,,,",
",,,,,, 222 88 OOOOOOOOOOOOOOOOO  OOOOOOOOOOOOOOOOO 88 ,,,,,,,,,,",
",,,,,, 222 88 OOOOOOOOOOOOOOOOO  OOOOOOOOOOOOOOOOO 88 ,,,,,,,,,,",
"   ,,      t8 OOOOOOOOOOOOOOOOO  OOOOOOOOOOOOOOOOO 88  ,,,,,    ",
"==    :::: 88 OOOOOOOOOOOOOOOOO  OOOOOOOOOOOOOOOOO 88        44=",
"444= ::44     OOOOOOOOOOOOOOOOO  O   OOOOOOOOOOOOO 88 :444 =44==",
"==4= ::::  yy OOOOOOOOOOOOOOOOO  O   OOOOOOOOOOOOO    :::4 =====",
"====  :::  yy OOOOOOOOOOOOOOOOO  O   OOOOOOOOOOOoo yy :::   ====",
"===   :::  yy ooOOOOOOOOOOOOOoo  oo OOOOOOOOOOoooo yy ::: *  ===",
"    *  ::  >y oooOOOOOOOOOOoooo  oo ooooOOOOOOoooo yy     **    ",
" *----     >> ooooOOooooooooooo  ooooooooooooooooo >y * ******* ",
" ****-**   >> XooooooooooooooXX  XXooooooooooooooX >> * *------ ",
" ******* * >> XXooooooXXXXXXXXX  XXXXoooooooooooXX >> * ******- ",
"  ****** * >> XXXXXXXXXXXXXXXXX  XXXXXXooooooooXXX >>    ****** ",
"%             XXXXXXXXXXXXXXXX.  .XXXXXXXXXXXXXXXX >>  <        ",
"%<  +%<<<< 33 .XXXXXXXXXXXXXX..  ...XXXXXXXXXXXXXX    <<<%%++%<<",
"%<<<+%%%%% 3$ ....XXXXXXXXXXX..  ....XXXXXXXXXXXX. 3$ %%%%%++%%%",
"++++++++++ $$ .....XXXXXXXX....  ........XXXXXXX.. $3 +++++++%%%",
"+++&++++++    ......XXXXXX.....  ...........XXXX.. $$ &@&&&&++++",
"@@&&&&&&@@ 11 .......XXX.......  .................    @@@&&&&&&@",
"6@&&@@@&@@ #1 .................  ................. 1# 66@@@&&&@@",
"6@@@@@@@@@ ## .................  ................. ## 6666@@@@@6"
};
