/* XPM */
static char *result[] = {
/* columns rows colors chars-per-pixel */
"64 64 6 1 ",
"  c #38312B",
". c #2F2E36",
"X c #615932",
"o c #3A434C",
"O c #455062",
"+ c #475766",
/* pixels */
"++++++++++++++++++++++++++++++++++++++++++++++++++++++++++++++++",
"++++++++++++++++++++++++++++++++++++++++++++++++++++++++++++++++",
"++++++++++++++++++++++++++++++++++++++++++++++++++++++++++++++++",
"+++..........................................................+++",
"+++..oooOoOO.. ..ooooOoOoO.  .oooO.XXX.oooooooooOoOo.ooo.XX..+++",
"+++...oooOoO..XX.oooooOoOO.. .oooo..  ..ooooooOooOoO...  ....+++",
"+++.o.ooOoOO. XX..oooOoOoOO.. oooOo..  ...ooooooOoOoOO.. oOO.+++",
"+++.o....Oo........oooOoOOOO.ooooooO......ooooOooOoOOOO..OoO.+++",
"+++.oOo.....oooOoO..oOo......ooooOooOoOOO.ooooooOoOoOOOO.oOO.+++",
"+++.ooOo...ooOooOOO.ooO.XX..oooooooOoOOOO.ooooOooOoOOOoO.OoO.+++",
"+++.oOoOO.oooooOoOO.oOo.  ..oooooOooOoOOo.ooooooOoOoOOOO.oOO.+++",
"+++.ooOOO.oooOooOOO..oO. ...oooooooOoOOOO ooooOooOoOOO...OoO.+++",
"+++.oOoOO.oooooOoOoO......o...oooOooOoOo   oooooOoOo....ooOO.+++",
"+++.oo.........oOOOO.oooOooOO.oooooOoOO  O. ooOo......oooOoO.+++",
"+++.oO. ... XX..oOO..oooooOOO.....OoOo..OoO .......oO...ooO..+++",
"+++.oo...o.  ....OO.ooooOooOOO.XX......ooOo.XX..oooooOO.....X+++",
"+++.oO..oo....OO.....oooooOoOO.XXX..ooooOoO  XX ooooOoOO.oO.X+++",
"+++.o.. ooooOoOOO.  .oooOooOOO.   .ooooooOoO..  .ooooOOO.oO..+++",
"+++...o  ooooOOOO. X..ooooOoOO.  ..oooooOoOoOOOO.oooOoOO..OO.+++",
"+++.ooOo oooOoOOO.XX..ooOooOOO....oooooooOoOOOoO.ooooOOOO.OO.+++",
"+++.oooo ooooOOOO....oooooOoOO..ooooooooOoOoOOOO..ooOoOOO....+++",
"+++.ooOo..ooOoOO...oooooOooOOO....oooooooOoOOoOOO.oooOOOO..o.+++",
"+++.ooooO..ooOOO.O.oooooooOoO..Oo...ooooOoOoOOOO..ooOoOOO.oO.+++",
"+++.ooOooO.......o. ooooOooOO.OoOOO.....oOoOOO.....ooOOO..Oo.+++",
"+++.ooooOoO.XX.ooOo ooooooOOO.oOoOO..XX.OoOoOO.  X.oOoOO X...+++",
"+++.ooOooOO.XX.OooO  oooOooOO.OoOOOO.  ..OoO... XX.ooOO  ..O.+++",
"+++..oooOo..  .ooOoO .ooooO...oOoOOo. .......O..X..oO.. OoOO.+++",
"+++...OooO.o. .OooOOO.......ooOoOOOO...oooOoOOO.......oooOOO.+++",
"+++.X.ooOo.o...ooOoOOOOO.ooooooOoOOO.ooooooOoOOO.XX.ooooOoOO.+++",
"+++. ..oo..ooooOooOOOOOO oooooOoOOoO.oooooOoOOOO.X .oooooOOO.+++",
"+++.......oooooooOoOOOO  ooooooOoOOO.ooooooOoOoO.  .ooooOoOO.+++",
"+++..oooO.oooooOooOOOOO  oooooOoOOO..oooooOoOOOO....oooooOOO.+++",
"+++.oooOo..ooooooOoOOO.  ooooooOoOO.oooooooOoOOOOO..ooooOoO..+++",
"+++.ooooOO...ooOooOOOO.X  ooooOoOO..ooooooOoOOOoOO....ooo....+++",
"+++.oooOoOOO....oOoOOO.XX.... oOo...oooooooOoOOOOO.oO.....XX +++",
"+++.ooooOOOOO.o........XXX..o  ...o..oooooOoOOOOo..OoO.XX..X.+++",
"+++.oooOoOOOO.oooooOoO..X..oooOoOoOo.ooooooO...OO ooOO  X....+++",
"+++.ooooOOOOO.ooooOoOoO...oooooooOoO.....o...O..   OoO   .  .+++",
"+++.oooOoOOOO.oooooOoOOO.oooooOoooOoO..X...ooOo    ...  o..X.+++",
"+++...ooOOOO..ooooooOoOO..oooooOoooOOO.X .ooOoOo ooO.X.oO. ..+++",
"+++...oOoOOO.ooooooOoOOOO..oooOoOoOoOO....oooOO  oOo.X..o....+++",
"+++.o.........ooooOoOoOOOO.ooooOoooOO..O...ooO..oooO......oo.+++",
"+++.oooO. XX .oooooOoOOOOO..ooooOoOo..oOoO.....oooooOoOO.ooO.+++",
"+++.ooOo. X  ..oooooOoOOOOO.oooOoOo..oooOo.XXX.ooooOoOO..ooo.+++",
"+++.oooO.X    .ooooooOOOOOO.ooooO.. o  .oO..X...ooooOoO.oooO.+++",
"+++.ooOo.......oooooOoOOOO........o... .......o.oooooOO..ooo.+++",
"+++.oooOo.oooO....oooOOOO..o. XXX.ooooooOoOOOOO...oooo   ooO.+++",
"+++....oO.ooooOoO..oOoOO .oo.  X..oooooOoOOOOo..o....  O ..o.+++",
"+++.. ....oooOoOoO....   ooo......ooooooOoOOO..ooooo  ooOO...+++",
"+++.   ..oooooOoOOOOOOO oooooOoO.ooooooOoOOOO.oooooOo..oO..O.+++",
"+++.XX ..ooooooOoOOoOOO.ooooooOo..ooooooOoOO...oooooOo....OO.+++",
"+++.....ooooooooOOOOoOO.oooooooOo..ooooOoO  .X.ooooooOoOoOOO.+++",
"+++.oOo..ooooooOoOOOOOO.ooooooooOo..oooO..  XX.oooooOoOOOoOO.+++",
"+++.ooOo.oooooOoOOOoOO...ooooooooOO.   ..oO..X.ooooooOOOoOoO.+++",
"+++.oooO..oooOoOoOOOOO.o...oooooOoOOO oOoOOO  .oooooOoOOOoOO.+++",
"+++.ooOoO..oOoOoOOOOoO.ooO...ooOoOOOO.ooOoOO. oooooooOOOOOo .+++",
"+++.oooOOO..oOoOoOO....oooOo..OoOoOOO.oooOOO.oooooooOoOOOo  .+++",
"+++.ooOoOOo.  Oo  .. .oooOoOO.oOoOO...ooooOO..oooooooOoOO  X.+++",
"+++.oooOOOOO     O. X.ooooOOO..oOo..oooooOOoO..oooooOoOo  XX.+++",
"+++.ooOoOOO..OoOOO.X ...oOoOOO......ooooOoOOoO..oooooOo  XXX.+++",
"+++................ X  ......................................+++",
"++++++++++++++++++++++++++++++++++++++++++++++++++++++++++++++++",
"++++++++++++++++++++++++++++++++++++++++++++++++++++++++++++++++",
"++++++++++++++++++++++++++++++++++++++++++++++++++++++++++++++++"
};
