/* XPM */
static char *result[] = {
/* columns rows colors chars-per-pixel */
"64 64 7 1 ",
"  c black",
". c #38312B",
"X c #2F2E36",
"o c #615932",
"O c #3A434C",
"+ c #455062",
"@ c #475766",
/* pixels */
"@@@@@@@@@@@@@@@@@@@@@@@@@@@@@@@@@@@@@@@@@@@@@@@@@@@@@@@@@@@@@@@@",
"@@@@@@@@@@@@@@@@@@@@@@@@@@@@@@@@@@@@@@@@@@@@@@@@@@@@@@@@@@@@@@@@",
"@@@@@@@@@@@@@@@@@@@@@@@@@@@@@@@@@@@@@@@@@@@@@@@@@@@@@@@@@@@@@@@@",
"@@@XXXXXXXXXXXXXXXXXXXXXXXXXXXXXXXXXXXXXXXXXXXXXXXXXXXXXXXXXX@@@",
"@@@XXOOO+O++XX.XXOOOO+O+O+X..XOOO+XoooXOOOOOOOOO+O+OXOOOXooXX@@@",
"@@@XXXOOO+O+XXooXOOOOO+O++XX.XOOOOXX..XXOOOOOO+OO+O+XXX..XXXX@@@",
"@@@XOXOO+O++X.ooXXOOO+O+O++XX.OOO+OXX..XXXOOOOOO+O+O++XX.O++X@@@",
"@@@XOXXXX+OXXXXXXXXOOO+O++++XOOOOOO+XXXXXXOOOO+OO+O++++XX+O+X@@@",
"@@@XO+OXXXXX      XXO+OXXXXXXOOOO+OO+O+++XOOOOOO+O+O++++XO++X@@@",
"@@@XOO+OXXX        XOO+XooXXOOOOOOO+O++++XOOOO+OO+O+++O+X+O+X@@@",
"@@@XO+O++X         XO+OX..XXOOOOO+OO+O++OXOOOOOO+O+O++++XO++X@@@",
"@@@XOO+++X         XXO+X.XXXOOOOOOO+O++++.OOOO+OO+O+++XXX+O+X@@@",
"@@@XO+O++X          XXXXXX XXXOOO+OO+O+O...OOOOO+O+OXXXXOO++X@@@",
"@@@XOOXXXX                   XOOOOO+O++.. X.OO+OXXXXXXOOO+O+X@@@",
"@@@XO+X.XX                   XXXXX+O+OXX   .XXXXXXXO+XXXOO+XX@@@",
"@@@XOOXXX                        XXXXXX    XooXXOOOOO++XXXXXo@@@",
"@@@XO+XX                                   ..oo.OOOO+O++XO+Xo@@@",
"@@@XOXX                                     XX..XOOOO+++XO+XX@@@",
"@@@XXX                                          XOOO+O++XX++X@@@",
"@@@X                                            XOOOO++++X++X@@@",
"@@@X                                            XXOO+O+++XXXX@@@",
"@@@X                                             XOOO++++XXOX@@@",
"@@@X                                            XXOO+O+++XO+X@@@",
"@@@X                                          XXXXXOO+++XX+OX@@@",
"@@@X                                          X..oXO+O++.oXXX@@@",
"@@@X                                          X.ooXOO++..XX+X@@@",
"@@@XX                                         XXoXXO+XX.+O++X@@@",
"@@@XXX                                         XXXXXXXOOO+++X@@@",
"@@@XoX                                          XooXOOOO+O++X@@@",
"@@@X.XX                                         Xo.XOOOOO+++X@@@",
"@@@XXXXXXX                                      X..XOOOO+O++X@@@",
"@@@XXOOO+X                                      XXXXOOOOO+++X@@@",
"@@@XOOO+OXX                                       XXOOOO+O+XX@@@",
"@@@XOOOO++XXX                                     XXXXOOOXXXX@@@",
"@@@XOOO+O+++XX                                       XXXXXoo.@@@",
"@@@XOOOO+++++X                                        XooXXoX@@@",
"@@@XOOO+O++++X                                        ..oXXXX@@@",
"@@@XOOOO+++++X                                        ...X..X@@@",
"@@@XOOO+O++++X                                      XX..OXXoX@@@",
"@@@XXXOO++++XX                                      XoXO+X.XX@@@",
"@@@XXXO+O+++X                                       XoXXOXXXX@@@",
"@@@XOXXXXXXXXX                                      XXXXXXOOX@@@",
"@@@XOOO+X.oo.X                                          XOO+X@@@",
"@@@XOO+OX.o..XX                                        XXOOOX@@@",
"@@@XOOO+Xo....X                                        XOOO+X@@@",
"@@@XOO+OXXXXXXX           XXX                          XXOOOX@@@",
"@@@XOOO+OX               XXOX                  XXX       OO+X@@@",
"@@@XXXXO+X              .XOOX                 XXOXXXX    XXOX@@@",
"@@@XX.XXXX             ..OOOXXXXX            XXOOOOO.     XXX@@@",
"@@@X...XX              .OOOOO+O+X            XOOOOO+OXX  XX+X@@@",
"@@@Xoo.XX              XOOOOOO+OXX          XXXOOOOO+OXXXX++X@@@",
"@@@XXXXX               XOOOOOOO+OXX       ..XoXOOOOOO+O+O+++X@@@",
"@@@XO+OXX              XOOOOOOOO+OXX    XX..ooXOOOOO+O+++O++X@@@",
"@@@XOO+OX             XXXOOOOOOOO++X...XXO+XXoXOOOOOO+++O+O+X@@@",
"@@@XOOO+XX            XOXXXOOOOO+O+++.O+O+++..XOOOOO+O+++O++X@@@",
"@@@XOO+O+XX           XOO+XXXOO+O++++XOO+O++X.OOOOOOO+++++O.X@@@",
"@@@XOOO+++XX       XXXXOOO+OXX+O+O+++XOOO+++XOOOOOOO+O+++O..X@@@",
"@@@XOO+O++OX..  ..XX.XOOO+O++XO+O++XXXOOOO++XXOOOOOOO+O++..oX@@@",
"@@@XOOO+++++.....+X.oXOOOO+++XXO+OXXOOOOO++O+XXOOOOO+O+O..ooX@@@",
"@@@XOO+O+++XX+O+++Xo.XXXO+O+++XXXXXXOOOO+O++O+XXOOOOO+O..oooX@@@",
"@@@XXXXXXXXXXXXXXXX.o..XXXXXXXXXXXXXXXXXXXXXXXXXXXXXXXXXXXXXX@@@",
"@@@@@@@@@@@@@@@@@@@@@@@@@@@@@@@@@@@@@@@@@@@@@@@@@@@@@@@@@@@@@@@@",
"@@@@@@@@@@@@@@@@@@@@@@@@@@@@@@@@@@@@@@@@@@@@@@@@@@@@@@@@@@@@@@@@",
"@@@@@@@@@@@@@@@@@@@@@@@@@@@@@@@@@@@@@@@@@@@@@@@@@@@@@@@@@@@@@@@@"
};
