/* XPM */
static char *result[] = {
/* columns rows colors chars-per-pixel */
"64 64 24 1 ",
"  c black",
". c #081526",
"X c #051B33",
"o c #082340",
"O c #122A44",
"+ c #13314B",
"@ c #183851",
"# c #1D3F58",
"$ c #203E58",
"% c #1D4056",
"& c #254A5D",
"* c #244362",
"= c #2F5363",
"- c #315B73",
"; c #404143",
": c #475766",
"> c #4A5E65",
", c #4C656C",
"< c #5A6E6F",
"1 c #456B7E",
"2 c #558184",
"3 c #67999A",
"4 c #B7B8A6",
"5 c #C5C4A8",
/* pixels */
"       ;;;;                    ;;;                    ;;;;;;    ",
"444444   ;  555555555555555555  ;  555555555555555555  ;;    444",
"44444444    5555555555555555555   55555555555555555555    444444",
"44444444 555555555555555555555555 555555555555555555555  4444444",
"44444444 555555555555555555555555 555555555555555555555 44444444",
"44444444  55555555555555555555555 555555555555555555555 44444444",
"444444444 55555555555555555555555 555555555555555555555 44444444",
"444444444 55555555555555555555555 555555555555555555555 44444444",
"444444444 55555555555555555555555 555555555555555555555 44444444",
"444444444 55555555555555555555555 555555555555555555555 44444444",
"444444444 55555555555555555555555 555555555555555555555 44444444",
"444444444 55555555555555555555555 555555555555555555555 44444444",
"444444444 55555555555555555555555 <55555555555555555555 44444444",
"44444<<<< <5555555555555<<555555< <<<55555555555555555< <4444444",
"444<<<<<< <<<555555555<<<<<<<55<< <<<<<<5555555555555<< <<444444",
"<<<<<<<<< <<<<<<<<<<<<<<<<<<<<<<< <<<<<<<<<<<<<<<<<<<<< <<<<<<<<",
"<<<<<<<<< <<<<<<<<<<<<<<<<<<<<<<< <<<<<<<<<<<<<<<<<<<<< <<<<<<<<",
"<<<<<<<<< <<<<<<<<<<<<<<<<<<<<<<< <<<<<<<<<<<<<<<<<<<<< <<<<<<<<",
"<<<<<<<<< <<<<<<<<<<<<<<<<<<<<<<< <<<<<<<<<<<<<<<<<<<<< <<<<<<<<",
"<<<<<<<<< <<<<<<<<<<<<<<<<<<<<<<< <<<<<<<<<<<<<<<<<<<<< <<<<<<<<",
"<<<<<<<<< <<<<<<<<<<<<<<<<<<<<<<< <<<<<<<<<<<<<<<<<<<<< <<<<<<<<",
"<<<<<<<<< <<<<<<<<<<<<<<<<<<<<<<< <<<<<<<<<<<<<<<<<<<<< <<<<<<<<",
"<<<<<<<<  <<<<<<<<<<<<<<<<<<<<<<< <<<<<<<<<<<<<<<<<<<<<  <<<<<<<",
"<<<<<<<  <<<<<<<<<<<<<<<<<<<<<<<   <<<<<<<<<<<<<<<<<<<<< <<<<<<<",
"<<<<<<    <<<<<<<<<<<<<<<<<<<<   >  <<<<<<<<<<<<<<<<<<<   <<<<<<",
"       >>                      >>>>  <<<<<<<<<<<<<<<<<  >       ",
">>>>>>>>>>  >>>>>>>>>>>>>>>>>> >>>>>  <<<<<<<<<<<<     >>>>>>>>>",
">>>>>>>>>>> >>>>>>>>>>>>>>>>>> >>,,>>              >>>>>>>>>>>>>",
">>>>>>>>>>> >>>>>>>>>>>>>>>>>> >,,,,>>>>>>>>>>>>>> >>>>>>>>>>>>>",
"22222222222 ,2222222222222,,,, ,,,,,>>>>>>>>>>>>>> >>>>>22222222",
"22222222222 ,,,,,,,,,,,,,,,,,, ,,,,,,22222222222,, 2233333333322",
"22222222222 ,,,,,,,,,,,,,,,,,, ,,,,,,,,,,,,,,,,2,, 2332222222222",
"22222222222 ,,,,,,,,,,,,,,,,,, ,,,,,,,,,,,,,,,,2,, 3322222222222",
"22222222222 ,,,,,,,,,,,,,,,,,, ,,,,,,,,,,,,,,,,,,, 3222222222222",
"22222222222 ,,,,,,,,,,,,,,,,,, ,,,,,,,,,,,,,,,,,,, 2222222222222",
"22222222222  ,,,,,,,,,,,,,,,,   ,,,,,,,,,,,,,,,,,, 2222222222222",
"2222222222    ,,,,,,,,,,,,,,  $ ,,,,,,,,,,,,,,,,,   222222222222",
"     2222  $$                $$  ,,,,,,,,,,,,,,,  $             ",
"$$$$  22  $$$$$$$$$$$    $$$$$$$  ,,,,,,,,,,,,,  $$$ $$$$$$$$$$$",
"&11$$    $$$$$$$$$$$$$  $$$$$$$$$               $$$$ $$$1&11111&",
"&&11$$ $$$=111==1111=$$ $1111&&&$$$$$$$$$ $$$$$$$11= &111&&&&&&&",
"&&&&&& ================ &11&&&&&&&&1111&& ==11===1== &&&&&&&&&&&",
"&&&&&& ================ &1&&&&&&&&&&&&&&& ========== &&&&&&&&&&&",
"&&&&&& ================ &&&&&&&&&&&&&&&&   ========= &&&&&&&&&&&",
"&&&&&& ============     &&&&&&&&&&&&&&&  %  ========  &&&&&&&&&&",
"   &&       =====   @@@      &&&&&&&&&  %%%  ======    &&&&&    ",
"@@    %%%%%       @@-------@            %%%%        %%       --@",
"---@ %%------%% @@@@@@@@@@--@ @-------@  %%----%% %--%%--- @--@@",
"@@-@ %%%%%%%%%% @@@@@@@@@@@-@ @@@@@@@--@ %%%%%--% %%%%%%%- @@@@@",
"@@@@  %%%%%%%%% @@@@@@@@@@@@@ @@@@@@@@@@ %%%%%%%% %%%%%%%   @@@@",
"@@@   %%%%%%%%  @@@@@@@@@@@@@ @@@@@@@@@@ %%%%%%%   %%%%%% +  @@@",
"    +  %%%%%%     @@@@@@@@     @@@@@@@@                   ++    ",
" +####        +++          +++          ++++ ++++++++++ +++++++ ",
" ++++#++  +++####### ++#########+ ++#######+ +########+ +###### ",
" +++++++ ++++++++++# ++++++++++#+ ++++++++#+ ++++++++#+ ++++++# ",
"  ++++++ +++    +++   ++++++++++   +++++++++   +++++++   ++++++ ",
"o            *o +++ *            o  +++++++  *         *        ",
"o*  .o********o     ***o.o*******oo         **ooooo.o****oo..o**",
"o***.oooooooooooo.oooooo.oooooooooooo.oooo***ooooo..ooooooo..ooo",
"...........................o......oo...oooooooooo............ooo",
"...O.......OO...OOOOXO...O...OOXO....O............OOOOOXOOOO....",
"XXOOOOOOXXXOOOOOOOOXXOOOOOOOOOOXOOOOOOOOXOOOOOOOOOOOOXXXXOOOOOOX",
":XOOXXXOX:XXOOOOXXXX:XXOOOOXXXXXXOOOOOXXXXXXXOOOOOXXXX::XXXOOOXX",
":XXXXXXXX::XXXXXX:::::XXXXXX::XXXXXXXXX:::::XXXXXXX:::::::XXXXX:"
};
