/* XPM */
static char *result[] = {
/* columns rows colors chars-per-pixel */
"64 64 24 1 ",
"  c black",
". c #081526",
"X c #051B33",
"o c #082340",
"O c #122A44",
"+ c #13314B",
"@ c #183851",
"# c #1D3F58",
"$ c #203E58",
"% c #1D4056",
"& c #254A5D",
"* c #244362",
"= c #2F5363",
"- c #315B73",
"; c #404143",
": c #475766",
"> c #4A5E65",
", c #4C656C",
"< c #5A6E6F",
"1 c #456B7E",
"2 c #558184",
"3 c #67999A",
"4 c #B7B8A6",
"5 c #C5C4A8",
/* pixels */
":XXXXX:::::::XXXXXXX:::::XXXXXXXXX::XXXXXX:::::XXXXXX::XXXXXXXX:",
"XXOOOXXX::XXXXOOOOOXXXXXXXOOOOOXXXXXXOOOOXX:XXXXOOOOXX:XOXXXOOX:",
"XOOOOOOXXXXOOOOOOOOOOOOXOOOOOOOOXOOOOOOOOOOXXOOOOOOOOXXXOOOOOOXX",
"....OOOOXOOOOO............O....OXOO...O...OXOOOO...OO.......O...",
"ooo............oooooooooo...oo......o...........................",
"ooo..ooooooo..ooooo***oooo.oooooooooooo.oooooo.oooooooooooo.***o",
"**o..oo****o.ooooo**         oo*******o.o***     o********o.  *o",
"        *         *  +++++++  o            * +++ o*            o",
" ++++++   +++++++   +++++++++   ++++++++++   +++    +++ ++++++  ",
" #++++++ +#++++++++ +#++++++++ +#++++++++++ #++++++++++ +++++++ ",
" ######+ +########+ +#######++ +#########++ #######+++  ++#++++ ",
" +++++++ ++++++++++ ++++          +++          +++        ####+ ",
"    ++                   @@@@@@@@     @@@@@@@@     %%%%%%  +    ",
"@@@  + %%%%%%   %%%%%%% @@@@@@@@@@ @@@@@@@@@@@@@  %%%%%%%%   @@@",
"@@@@   %%%%%%% %%%%%%%% @@@@@@@@@@ @@@@@@@@@@@@@ %%%%%%%%%  @@@@",
"@@@@@ -%%%%%%% %--%%%%% @--@@@@@@@ @-@@@@@@@@@@@ %%%%%%%%%% @-@@",
"@@--@ ---%%--% %%----%%  @-------@ @--@@@@@@@@@@ %%------%% @---",
"@--       %%        %%%%            @-------@@       %%%%%    @@",
"    &&&&&    ======  %%%  &&&&&&&&&      @@@   =====       &&   ",
"&&&&&&&&&&  ========  %  &&&&&&&&&&&&&&&     ============ &&&&&&",
"&&&&&&&&&&& =========   &&&&&&&&&&&&&&&& ================ &&&&&&",
"&&&&&&&&&&& ========== &&&&&&&&&&&&&&&1& ================ &&&&&&",
"&&&&&&&&&&& ==1===11== &&1111&&&&&&&&11& ================ &&&&&&",
"&&&&&&&111& =11$$$$$$$ $$$$$$$$$&&&1111$ $$=1111==111=$$$ $$11&&",
"&11111&1$$$ $$$$               $$$$$$$$$  $$$$$$$$$$$$$    $$11&",
"$$$$$$$$$$$ $$$  ,,,,,,,,,,,,,  $$$$$$$    $$$$$$$$$$$  22  $$$$",
"             $  ,,,,,,,,,,,,,,,  $$                $$  2222     ",
"222222222222   ,,,,,,,,,,,,,,,,, $  ,,,,,,,,,,,,,,    2222222222",
"2222222222222 ,,,,,,,,,,,,,,,,,,   ,,,,,,,,,,,,,,,,  22222222222",
"2222222222222 ,,,,,,,,,,,,,,,,,,, ,,,,,,,,,,,,,,,,,, 22222222222",
"2222222222223 ,,,,,,,,,,,,,,,,,,, ,,,,,,,,,,,,,,,,,, 22222222222",
"2222222222233 ,,2,,,,,,,,,,,,,,,, ,,,,,,,,,,,,,,,,,, 22222222222",
"2222222222332 ,,2,,,,,,,,,,,,,,,, ,,,,,,,,,,,,,,,,,, 22222222222",
"2233333333322 ,,22222222222,,,,,, ,,,,,,,,,,,,,,,,,, 22222222222",
"22222222>>>>> >>>>>>>>>>>>>>,,,,, ,,,,2222222222222, 22222222222",
">>>>>>>>>>>>> >>>>>>>>>>>>>>,,,,> >>>>>>>>>>>>>>>>>> >>>>>>>>>>>",
">>>>>>>>>>>>>              >>,,>> >>>>>>>>>>>>>>>>>> >>>>>>>>>>>",
">>>>>>>>>     <<<<<<<<<<<<  >>>>> >>>>>>>>>>>>>>>>>>  >>>>>>>>>>",
"       >  <<<<<<<<<<<<<<<<<  >>>>                      >>       ",
"<<<<<<   <<<<<<<<<<<<<<<<<<<  >   <<<<<<<<<<<<<<<<<<<<    <<<<<<",
"<<<<<<< <<<<<<<<<<<<<<<<<<<<<   <<<<<<<<<<<<<<<<<<<<<<<  <<<<<<<",
"<<<<<<<  <<<<<<<<<<<<<<<<<<<<< <<<<<<<<<<<<<<<<<<<<<<<  <<<<<<<<",
"<<<<<<<< <<<<<<<<<<<<<<<<<<<<< <<<<<<<<<<<<<<<<<<<<<<< <<<<<<<<<",
"<<<<<<<< <<<<<<<<<<<<<<<<<<<<< <<<<<<<<<<<<<<<<<<<<<<< <<<<<<<<<",
"<<<<<<<< <<<<<<<<<<<<<<<<<<<<< <<<<<<<<<<<<<<<<<<<<<<< <<<<<<<<<",
"<<<<<<<< <<<<<<<<<<<<<<<<<<<<< <<<<<<<<<<<<<<<<<<<<<<< <<<<<<<<<",
"<<<<<<<< <<<<<<<<<<<<<<<<<<<<< <<<<<<<<<<<<<<<<<<<<<<< <<<<<<<<<",
"<<<<<<<< <<<<<<<<<<<<<<<<<<<<< <<<<<<<<<<<<<<<<<<<<<<< <<<<<<<<<",
"<<<<<<<< <<<<<<<<<<<<<<<<<<<<< <<<<<<<<<<<<<<<<<<<<<<< <<<<<<<<<",
"444444<< <<5555555555555<<<<<< <<55<<<<<<<555555555<<< <<<<<<444",
"4444444< <55555555555555555<<< <555555<<5555555555555< <<<<44444",
"44444444 55555555555555555555< 55555555555555555555555 444444444",
"44444444 555555555555555555555 55555555555555555555555 444444444",
"44444444 555555555555555555555 55555555555555555555555 444444444",
"44444444 555555555555555555555 55555555555555555555555 444444444",
"44444444 555555555555555555555 55555555555555555555555 444444444",
"44444444 555555555555555555555 55555555555555555555555 444444444",
"44444444 555555555555555555555 55555555555555555555555 444444444",
"44444444 555555555555555555555 55555555555555555555555  44444444",
"44444444 555555555555555555555 555555555555555555555555 44444444",
"4444444  555555555555555555555 555555555555555555555555 44444444",
"444444    55555555555555555555   5555555555555555555    44444444",
"444    ;;  555555555555555555  ;  555555555555555555  ;   444444",
"    ;;;;;;                    ;;;                    ;;;;       "
};
