/* XPM */
static char *result[] = {
/* columns rows colors chars-per-pixel */
"64 64 23 1 ",
"  c black",
". c #081526",
"X c #051B33",
"o c #082340",
"O c #122A44",
"+ c #13314B",
"@ c #183851",
"# c #1D3F58",
"$ c #203E58",
"% c #1D4056",
"& c #3E4243",
"* c #254A5D",
"= c #244362",
"- c #2F5363",
"; c #315B73",
": c #475766",
"> c #4A5E65",
", c #4C656C",
"< c #5A6E6F",
"1 c #456B7E",
"2 c #558184",
"3 c #B7B8A6",
"4 c #C5C4A8",
/* pixels */
"&&&             &&&&&&&&&           &&&&&&&&&&&&&&&&&&&&        ",
"&&  33333333333      &&&  444444444  &&&&&&&&&&&&&&&&&&& 3333333",
"&  33333333333333333     44444444444              &&&&&  3333333",
"  33333333333333333333 44444444444444444444444444  &&&& 33333333",
" 333333333333333333333 444444444444444444444444444  &&  33333333",
" 333333333333333333333 4444444444444444444444444444    333333333",
" 333333333333333333333 44444444444444444444444444444 33333333333",
" 333333333333333333333  4444444444444444444444444444 33333333333",
" 3333333333333333333333 4444444444444444444444444444 33333333333",
" 3333333333333333333333   44444444444444444444444444 33333333333",
" 333333333333333333333333 44444444444444444444444444 33333333333",
" 333333333333333333333333 44444444444444444444444444 33333333333",
" 333333333333333333333333 44444444444444444444444444 33333333333",
" 333333333333333333333333 44444444444444444444444444 33333333333",
" 333333333333333333333333 44444444444444444444444444 33333333333",
" 33333333333333333333333< <<<<<<<<<<<444444444<<<<<4 33333<<<<<<",
" 3333333333333333333333<< <<<<<<<<<<<<<<444<<<<<<<<< 3<<<<<<<<<<",
" 333333333333333333333<<< <<<<<<<<<<<<<<<<<<<<<<<<<< <<<<<<<<<<<",
" 3333333333333333333<<<<<  <<<<<<<<<<<<<<<<<<<<<<<<< <<<<<<<<<<<",
" 3333333333333333333<<<<<< <<<<<<<<<<<<<<<<<<<<<<<<< <<<<<<<<<<<",
" 333333333333333333<<<<<<< <<<<<<<<<<<<<<<<<<<<<<<<< <<<<<<<<<<<",
" 33333333333333333<<<<<<<< <<<<<<<<<<<<<<<<<<<<<<<<< <<<<<<<<<<<",
" 33333333333333333<<<<<<<< <<<<<<<<<<<<<<<<<<<<<<<<  <<<<<<<<<<<",
" 3333333333333333<<<<<<<<<  <<<<<<<<<<<<<<<<<<<<<<  <<<<<<<<<<<<",
" 333333333333333<<<<<<<<<<   <<<<<<<<<<<<<<<<<<<<    <<<<<<<<<<<",
" 33333333333333<<<<<<<<<<< >                      >>            ",
"  33333333333<<<<<<<<<<<<  >>>>>>>>>>>>>>>>> >>>>>>>>>>>>>>> >>>",
"&  3333333333<<<<<<<<<<<    >>>>>>>>>>>>>>>> >>>>>>>>>>>>>>>  >>",
"&&   33333333<<<<<<<<<<  >>   >>>>>>>>>>>>>>  >>>>>>>>>>>>>>> >>",
"&&&&   3333<<<<<<<<<<    >>>> >,,,,,,,2222222   ,,,222222222, 22",
"&&&&&&                <<  >>> >>,,,,,,,,,,,,22, ,,,,,,,,,,,2, 22",
"&&     4444<<<<<<<<<<<<<< >>>   ,,,,,,,,,,,,,2, ,,,,,,,,,,,2, 22",
"&  44444444<<<<<<<<<<<<<< >>>>>  ,,,,,,,,,,,,2, ,,,,,,,,,,,2, 22",
"  444444444<<<<<<<<<<<<<< >>>2>> ,,,,,,,,,,,,,, ,,,,,,,,,,,,, 22",
" 4444444444<<<<<<<<<<<<<< >>>222                ,,,,,,,,,,,,, 22",
" 4444444444<<<<<<<<<<<<<< >>>2222  $$$$$$$$$$$$   ,,,,,,,,,,, 22",
" 44444444444<<<<<<<<<<<<< >>>22222 $$$$$$$$$$$$$$              2",
" 444444444444<<<<<<<<<<<< >>>22222  $$$***111***$ $$$$$$$$ $$$  ",
" 4444444444444<<<<<<<<<<< >>>222222  $$**11****** -------- **$$$",
" 4444444444444<<<<<<<<<<< >>>2222222 $$*11******* -------- 1*11*",
" 4444444444444<<<<<<<<<<< >>>2222222 $$11******** -------- 1****",
" 444444444444<<<<<<<<<<<< >>>2222222 $$1********  -------- *****",
" 444444444444<<<<<<<<<<<< >>>2222222 $$1*******  ------      ***",
" 444444444444<<<<<<<<<<<< >>>2222222 $$1******          @@@@ ***",
" 444444444444<<<<<<<<<<<< >>>2222222 $$******  ;;%%%% @@@@@@  **",
" 444444444444<<<<<<<<<<<<            $$*****  ;;%%%%% @;;;;@@   ",
" 444444444444<<<<<<<<<<<< >>>,,,,, $$$$****  ;;%%%%%% ;;@@@@@@@ ",
" 4444444444444<<<<<<<<<<< >>>2222,  $$$***  ;;%%%%%%% ;@@@@@@@@ ",
" 4444444444444<<<<<<<<<<< >>>2,,,,,   $*** %;%%%%%%%  ;@@@@@@@@ ",
" 4444444444444<<<<<<<<<<< >>>2,,,,,,,      %%%%%%%%% @@@@@@@@@@ ",
" 4444444444444<<<<<<<<<<< >>>2,,,,,,, $111   %%%%%%% @@@@@@@@@@ ",
" 4444444444444<<<<<<<<<<< >>>2,,,,,,, $1----  %%%%%             ",
" 444444444444<<<<<<<<<<<< >>>2,,,,,,, $------    %%  ##+++ +###+",
" 444444444444<<<<<<<<<<<< >>>2,,,,,,, $------ @@    ##++++ +++++",
" 44444444444<<<<<<<<<<<<< >>>2,,,,,,, $------ @@@@ +#+++++ +++++",
" 44444444444<<<<<<<<<<<<< >>>2,,,,,,, $------ @@@@  #++++  +++++",
" 44444444444<<<<<<<<<<<   >>>,,,,,,,, $------ @@@@@ +++         ",
"    44444444<<<<<<<<<<  >>>>>,,,,,,,  $1----- @@@@@ +++ =ooo.o==",
"&&&                 << >>>>>>2,,,,,  $$1----- ;@@@@     ==oo.ooo",
"&&&& 3333333<<<<<<<    >>>>>>2,,,,, $$$1----- ;@@@@ +++  =oo....",
"&&   3333333<<<<<<<<<<  >>>>>,,,,,, $$$------ @@@@@ ##++ =o...OO",
"   3333333333<<<<<<<<<<   >>>,,,     $$----   ;;@@@ #+++ oo.OXXX",
" 3333333333333<<<<<<<<<<<        222        * @;;;@ #+++ oo.OX::",
" 33333333333333<<<<<<<<<< >>>22222222 $******       ++++ =o.XX::"
};
