/* XPM */
static char *result[] = {
/* columns rows colors chars-per-pixel */
"64 64 23 1 ",
"  c black",
". c #081526",
"X c #051B33",
"o c #082340",
"O c #122A44",
"+ c #13314B",
"@ c #183851",
"# c #1D3F58",
"$ c #203E58",
"% c #1D4056",
"& c #3E4243",
"* c #254A5D",
"= c #244362",
"- c #2F5363",
"; c #315B73",
": c #475766",
"> c #4A5E65",
", c #4C656C",
"< c #5A6E6F",
"1 c #456B7E",
"2 c #558184",
"3 c #B7B8A6",
"4 c #C5C4A8",
/* pixels */
"   &&&                         &&&&&&                        &&&",
"33 &&& 44444444444444444444444  &&&&  3333333333333333333333  &&",
"33  && 444444444444444444444444  &&  333333333333333333333333  &",
"333 &  4444444444444444444444444 && 33333333333333333333333333  ",
"333   44444444444444444444444444 &  333333333333333333333333333 ",
"33333 44444444444444444444444444 & 3333333333333333333333333333 ",
"33333 44444444444444444444444444   3333333333333333333333333333 ",
"33333 444444444444444444444444444 33333333333333333333333333333 ",
"33333 444444444444444444444444444 33333333333333333333333333333 ",
"33333 444444444444444444444444444 33333333333333333333333333333 ",
"33333 444444444444444444444444444 33333333333333333333333333333 ",
"33333 4444444444444444444444<<<<< <3333333333333333333333333333 ",
"333<< <<<<44444444444444444<<<<<< <3333333333333333333333333333 ",
"33<<< <<<<<<44444<<<<<<444<<<<<<< <<<<3333333333333333333333333 ",
"3<<<< <<<<<<<<<<<<<<<<<<<<<<<<<<< <<<<3333333333333333333333333 ",
"<<<<< <<<<<<<<<<<<<<<<<<<<<<<<<<< <<<<<33333333333333333333333  ",
"<<<<< <<<<<<<<<<<<<<<<<<<<<<<<<<< <<<<<<3333333333333333333333 &",
"<<<<< <<<<<<<<<<<<<<<<<<<<<<<<<<< <<<<<<<333333333333333333333 &",
"<<<<< <<<<<<<<<<<<<<<<<<<<<<<<<<< <<<<<<<<<3333333333333333333 &",
"<<<<  <<<<<<<<<<<<<<<<<<<<<<<<<<< <<<<<<<<<<333333333333333333 &",
"<<<< <<<<<<<<<<<<<<<<<<<<<<<<<<<< <<<<<<<<<<<<333333333333333  &",
"<<<< <<<<<<<<<<<<<<<<<<<<<<<<<<<<  <<<<<<<<<<<333333333333333 &&",
"<<<    <<<<<<<<<<<<<<<<<<<<<<<<<<< <<<<<<<<<<<<333333333      &&",
"<<  >>  <<<<<<<<<<<<<<<<<<<<<<<<<<  <<<<<<<<<<<<333333   4444 &&",
"<< >>>> <<<<<<<<<<<<<<<<<<<<<<<<<    <<<<<<<<<<<<33333 444444  &",
"   >>>>                           >>  <<<<<<<          4444444  ",
"> >>>>>>>>>>>>>>>> >>>>>>>>>>>>>>>>>          <<<44444444444444 ",
"> >>>>>>>>>>>>>>>> >>>>>>>>>>>>>>>>  >>  <<<<<<<<44444444444444 ",
"> >>>>>>>>>>>>>>>> >>>>>>>>>>>>>>>> >>  <<<<<<<<<44444444444444 ",
"2 ,,22,,222222222, 222222222222>    >> <<<<<<<<<<44444444444444 ",
"2 ,,,,,,,,,,,,,,2, 22222222222>> >>>>> <<<<<<<<<<44444444444444 ",
"2 ,,,,,,,,,,,,,,2, 22222222222>  >,>>> <<<<<<<<<<44444444444444 ",
"2  ,,,,,,,,,,,,,2, 2222222222   ,,,>>> <<<<<<<<<<44444444444444 ",
"22 ,,,,,,,,,,,,,,, 222222222  ,,,,,>>> <<<<<<<<<<44444444444444 ",
"22 ,,,,,,,,,,,,,   2222222    ,,,,,>>> <<<<<<<<<<44444444444444 ",
"22    ,,,,,,,,,  $ 222222  $$ ,,,,,>>> <<<<<<<<<<4444444444444  ",
"2  $$  ,,,,,,,, $$        $$$ ,,,,,>>> <<<<<<<<<<444444444444  &",
"  $$$$          $$$$$$$$$$$$$ ,,,,,>>> <<<<<<<<<4444444444444 &&",
"$ $$$$$$$$$$$$ $$$$$$$$$$$$$$ ,,,,2>>> <<<<<<<<<4444444444444 &&",
"* --111-----11 *****1111***$$ ,,,,2>>> <<<<<<<<<4444444444444 &&",
"* -----------1 ********11**$$ ,,,,2>>> <<<<<<<<44444444444444 &&",
"* -----------1 *********11*$$ ,,,,2>>> <<<<<<<<44444444444444 &&",
"* -----------    ********11$$ ,,,,2>>> <<<<<<<<44444444444444 &&",
"*  ---------- %%  ********1$$ ,,,,2>>> <<<<<<<<<4444444444444 &&",
"** ---------  %;;  *******1$$ ,,,22    <<<<<<<<<4444444444444 &&",
"             %%%;;  *******$$ ,222  >> <<<<<<<<<4444444444444 &&",
" @;@;;@@@@@ %%%%%;;  ******$$ ,,,, >>> <<<<<<<<<<444444444444 &&",
" ;;@@@@@@@@ %%%%%%;;  *****$       >>> <<<<<<<<<<444444444444 &&",
" ;@@@@@@@@  %%%%%%%;   ***$$ ,,,,,,>>> <<<<<<<<<<444444444444 &&",
" ;@@@@@@@@ %%%%%%%%% -       ,,,,,,>>>  <<<<<<<<<44444444444  &&",
" @@@@@@@   %%%%%%%%% -----$ ,,,,,,,>>>>  <<<<<<<<4444444444  &&&",
"         +   %%%%%%% -----$ ,,,,,,2>>>>   <<<<<<4444444444  &&&&",
"+###+ ++###     %%%% -----$ ,,,,,,2>>>  <                  &&&&&",
"+++#+ ++++## @@      -----$ ,,,,,,2>>> <<<<<<<<33333333333 &&&&&",
"+++++ +++++# @@;;;@@ -----$ ,,,,,,2>>> <<<<<<<<<3333333333  &&&&",
"++++    ++++ @@@@;;@  ----$ ,,,,,,2>>> <<<<<<<<<33333333333   &&",
"     == ++++ @@@@@;@@ ----$ ,,,,,,2>>> <<<<<<<<<3333333333333   ",
"=oo===o  +++ @@@@@;@@ ----$ ,,,,,,2>>> <<<<<<<<<333333333333333 ",
"ooooooo      @@@@@;@@       ,,,,,,2>>> <<<<<<<<<<33333333333333 ",
"....ooo ++++ @@@@@@@@ *11*$ ,,,2222>>> <<<<<<<<<<33333333333333 ",
"XOO.... +++# @@@@@@   ****$ ,,,,,,,>   <<<<<<<<<<33333333333333 ",
"XXX..oo +++# @@@@@  ****1$$          > <<<<<<<<<<33333333333333 ",
"::XO.o= +++# @@@@@ *****1$  2222222>>> <<<<<<<<<<33333333333333 ",
"::XO.o= ++++       ******$ 22222222>>> <<<<<<<<<<33333333333333 "
};
