/* XPM */
static char *result[] = {
/* columns rows colors chars-per-pixel */
"64 64 24 1 ",
"  c black",
". c #081526",
"X c #051B33",
"o c #082340",
"O c #122A44",
"+ c #13314B",
"@ c #183851",
"# c #1D3F58",
"$ c #203E58",
"% c #1D4056",
"& c #254A5D",
"* c #244362",
"= c #2F5363",
"- c #315B73",
"; c #404143",
": c #475766",
"> c #4A5E65",
", c #4C656C",
"< c #5A6E6F",
"1 c #456B7E",
"2 c #558184",
"3 c #67999A",
"4 c #B7B8A6",
"5 c #C5C4A8",
/* pixels */
"::X..ooo     @@@-@ &&&&&&$ 22222222>>> <<<<<<<<<<44444444444444 ",
"XXX..**  +++ @@@-@ &&&&&1$ 22222222>>> <<<<<<<<<<44444444444444 ",
"XOO..*  +++# @@--  &&&&11$ 22222222>>> <<<<<<<<<<44444444444444 ",
"XOOO.*  +++#  @@@ &&&&&1$$ 22222222>>> <<<<<<<<<<<4444444444444 ",
"XXO.... +++#+     &&&&&$$  22222222>>> <<<<<<<<<<<4444444444444 ",
"XXO..oo ++##   %%  &&&&$  222222222>>> <<<<<<<<<<<<444444444444 ",
"XXO..o* +++  %%%%%       2222222222>>>  <<<<<<<<<<<44444444444  ",
"XOO..o* +++ %%%%-% ====$ 2222222222>>>>  <<<<<<<<<<44444444444 ;",
"XXX..o*     %%%%-% ====$  222222222>>>>   <<<<<<<<<4444444     ;",
"::X..o* ++  %%%%-% ====$$  22222222>>>  <                  55 ;;",
":XX..o* +++ %%%%-% =====$$  2222222>>  <<<<<<<<<<<<5555555555  ;",
"XXOO.o* +++ %%%%-  ====1$$$            <<<<<<<<<<<55555555555   ",
"XOOO.o*  ++ %%%%- =====1$$$  ,,,,,,>>> <<<<<<<<<<<5555555555555 ",
"XOO..o** +#  %%%% =====1$$  ,,,,,,2>>> <<<<<<<<<<55555555555555 ",
"XOO..ooo +#+  %%% ======$$ ,,,,,,,2>>> <<<<<<<<<<55555555555555 ",
"XOO..o   +#+      ======$$ ,,,,,,,2>>> <<<<<<<<<<55555555555555 ",
"XXOO.o +++#+ @@@@ =====1$$ ,,,,,,,2>>> <<<<<<<<<<55555555555555 ",
":XOO.. +++#  @@@@  ====1$$ ,,,,,,,2>>> <<<<<<<<<<55555555555555 ",
":XOO.o +++# @@@@@@ ====1$$ ,,,,,,,2>>> <<<<<<<<<<55555555555555 ",
":XXO.o   ## @@@@@@  ===1$$ ,,,,,,,2>>> <<<<<<<<<<55555555555555 ",
"::XX.o**    @@@@@-@ ====$$ ,,,,,,,2>>> <<<<<<<<<<55555555555555 ",
":XOO.o*  ++ @@@@@-@ ===$$  ,,,,,,,2>>> <<<<<<<<<<55555555555555 ",
"XXO..o* +++ @@@@@-@ ===$   ,,,,,,,2>>> <<<<<<<<<<<5555555555555 ",
"XOO..oo ++# @@@@@-         ,,,,,,,2>>> <<<<<<<<<<<5555555555555 ",
"XOO.... ++# @@@@@- &&&&$$  ,,,,,,,2>>> <<<<<<<<<<<<555555555555 ",
"XOOO.oo ++# @@@@@- &&111$$ ,,,,,,,2>>> <<<<<<<<<<<<555555555555 ",
"XOO..o* ++#  @@@-- &&&11$$ ,,,,,,,,>>> <<<<<<<<<<<5555555555555 ",
"XXO.oo* ++#+ @@--@ &&&&1$$ ,,,,,,,,>>> <<<<<<<<<<<5555555555555 ",
":XO..o* ++#+ @@@@  &&&&1$$  ,,,,,,,>>> <<<<<<<<<<<5555555555555 ",
":XOO.o* ++#+      &&&&&&$$$  ,,,,,,>>> <<<<<<<<<<55555555555555 ",
"XXOO.o* ++#  @@@@ &&&&&&$$$$            <<<<<<<<<5555555555555  ",
"XXXX.o* +## @@@@- &&&&&&$$   ,,,,,,>>>> <<<<<<<<<<55555555555  ;",
"XXOO.o*  ++ @@@@- &&&&&$$  ,,,,,,,,,>>>  <<<<<<<<<<5555555555 ;;",
"XOO..ooo    @@@@- &&&&&$  ,,,,,,,,,,,>>>                       ;",
"XOO.ooo  ++ @@@@- &&&&&$ ,,,,,,,,,,,,>>  <<<<<<<<<<<5555555555  ",
"XOO.oo  +++ @@@@- &&&&1$ ,,,,,,,,,,,>>  <<<<<<<<<<<555555555555 ",
"XOO..o +++# @@@@- &&&&1$ ,,,,,,,,,>>>  <<<<<<<<<<<<555555555555 ",
"XOOO.. +++# @@@-- &&&&1$ ,,,,,,,,2>>  <<<<<<<<<<<<5555555555555 ",
"XXO..o +++# @@@-@  &&&1$ ,,,,,,,,2>> <<<<<<<<<<<<<5555555555555 ",
":XO.oo +++#  @@@    &&&$ ,,,,,,,,2>> <<<<<<<<<<<<<5555555555555 ",
":XX.oo +++#+     %%  &&$ ,,,,,,,,2>> <<<<<<<<<<<<55555555555555 ",
":XO.oo +++#+ %%%%%%%     ,,,,,,,,2>> <<<<<<<<<<<<55555555555555 ",
":XO.o* ++##+ %%%%%%  ==$ ,,,,,,,,2>> <<<<<<<<<<<<55555555555555 ",
":XO.o*  ++++ %%%-%  ===$ ,,,,,,,,2>> <<<<<<<<<<<<55555555555555 ",
"XXO.o**      %%%-  ===1$ ,,,,,,,,2>> <<<<<<<<<<<<55555555555555 ",
"XOO.oo** +++ %%%- ====1$ ,,,,,,,,2>> <<<<<<<<<<<<55555555555555 ",
"XOO.ooo  +#+ %%-- =====$ ,,,,,,,,2>> <<<<<<<<<<<<55555555555555 ",
"XOO.ooo ++#+ %%-% =====$  ,,,,,222>> <<<<<<<<<<<<55555555555555 ",
"XOO.ooo ++#+  %%% =====$$  ,,,,,,,>> <<<<<<<<<<<<55555555555555 ",
"XOO..oo ++#+      ====11$$  ,,,,,,>> <<<<<<<<<<<<55555555555555 ",
"XXOO..o ++#+  %%% =====1$$$           <<<<<<<<<<<55555555555555 ",
":XOO... ++#+ %%%-  =====$$  223322>>> <<<<<<<<<<<55555555555555 ",
":XOO.oo ++#+ %%%-%         2222332>>> <<<<<<<<<<<55555555555555 ",
":XXO.o* +##+ %%%%%  &&&&$$ 2222233>>> <<<<<<<<<<<<555555555555  ",
"::XO.o*  +++ %%%%  &&&&1$$ 2222223>>>  <<<<<<<<<<<<5555555555  ;",
"::XX.o**     %%%- &&&&&1$$ 2222223>>>>  <                     ;;",
":XXO.o*  +++ %%%- &&&&&11$ 22222232>>>>   <<<<<<<<<444444444  ;;",
":XOO.oo ++#+   -- &&&&&&&$ 22222232>>>  <<<<<<<<<<44444444444  ;",
"XXOO.oo ++#+++    &&&&&&1$ 22222232>>> <<<<<<<<<<4444444444444 ;",
"XOOO... ++#++  @@ &&&&&&1$ 22222232>>> <<<<<<<<<<4444444444444 ;",
"XOO.... ++#+  @@-  &&&&&1$ 22222232>>> <<<<<<<<<<4444444444444  ",
"XOO.ooo ++#+ @@@-- &&&&&1$ 22222232>>> <<<<<<<<<<44444444444444 ",
"XXO.oo* +##+ @@@@- &&&&&1$ 22222222>>> <<<<<<<<<<44444444444444 ",
":XX.oo*      @@@@@ &&&&&&$ 22222222>>> <<<<<<<<<<44444444444444 "
};
