/* XPM */
static char *result[] = {
/* columns rows colors chars-per-pixel */
"64 64 23 1 ",
"  c black",
". c #081526",
"X c #051B33",
"o c #082340",
"O c #122A44",
"+ c #13314B",
"@ c #183851",
"# c #1D3F58",
"$ c #203E58",
"% c #1D4056",
"& c #3E4243",
"* c #254A5D",
"= c #244362",
"- c #2F5363",
"; c #315B73",
": c #475766",
"> c #4A5E65",
", c #4C656C",
"< c #5A6E6F",
"1 c #456B7E",
"2 c #558184",
"3 c #B7B8A6",
"4 c #C5C4A8",
/* pixels */
" 33333333333333<<<<<<<<<< >>>22222222 $******       ++++ =o.OX::",
" 33333333333333<<<<<<<<<< >>>2222222  $1***** @@@@@ #+++ =o.OX::",
" 33333333333333<<<<<<<<<< >          $$1****  @@@@@ #+++ oo..XXX",
" 33333333333333<<<<<<<<<<   >,,,,,,, $****   @@@@@@ #+++ ....OOX",
" 33333333333333<<<<<<<<<< >>>2222,,, $*11* @@@@@@@@ ++++ ooo....",
" 33333333333333<<<<<<<<<< >>>2,,,,,,       @@;@@@@@      ooooooo",
" 333333333333333<<<<<<<<< >>>2,,,,,, $---- @@;@@@@@ +++  o===oo=",
"   3333333333333<<<<<<<<< >>>2,,,,,, $---- @@;@@@@@ ++++ ==     ",
"&&   33333333333<<<<<<<<< >>>2,,,,,, $----  @;;@@@@ ++++    ++++",
"&&&&  3333333333<<<<<<<<< >>>2,,,,,, $----- @@;;;@@ #+++++ +++++",
"&&&&& 33333333333<<<<<<<< >>>2,,,,,, $-----      @@ ##++++ +#+++",
"&&&&&                  <  >>>2,,,,,, $----- %%%%     ###++ +###+",
"&&&&  4444444444<<<<<<   >>>>2,,,,,, $----- %%%%%%%   +         ",
"&&&  4444444444<<<<<<<<  >>>>,,,,,,, $----- %%%%%%%%%   @@@@@@@ ",
"&&  44444444444<<<<<<<<<  >>>,,,,,,       - %%%%%%%%% @@@@@@@@; ",
"&& 444444444444<<<<<<<<<< >>>,,,,,, $$***   ;%%%%%%%  @@@@@@@@; ",
"&& 444444444444<<<<<<<<<< >>>       $*****  ;;%%%%%% @@@@@@@@;; ",
"&& 444444444444<<<<<<<<<< >>> ,,,, $$******  ;;%%%%% @@@@@;;@;@ ",
"&& 4444444444444<<<<<<<<< >>  222, $$*******  ;;%%%             ",
"&& 4444444444444<<<<<<<<<    22,,, $$1*******  ;;%  --------- **",
"&& 4444444444444<<<<<<<<< >>>2,,,, $$1********  %% ----------  *",
"&& 44444444444444<<<<<<<< >>>2,,,, $$11********    ----------- *",
"&& 44444444444444<<<<<<<< >>>2,,,, $$*11********* 1----------- *",
"&& 44444444444444<<<<<<<< >>>2,,,, $$**11******** 1----------- *",
"&& 4444444444444<<<<<<<<< >>>2,,,, $$***1111***** 11-----111-- *",
"&& 4444444444444<<<<<<<<< >>>2,,,, $$$$$$$$$$$$$$ $$$$$$$$$$$$ $",
"&& 4444444444444<<<<<<<<< >>>,,,,, $$$$$$$$$$$$$          $$$$  ",
"&  444444444444<<<<<<<<<< >>>,,,,, $$$        $$ ,,,,,,,,  $$  2",
"  4444444444444<<<<<<<<<< >>>,,,,, $$  222222 $  ,,,,,,,,,    22",
" 44444444444444<<<<<<<<<< >>>,,,,,    2222222   ,,,,,,,,,,,,, 22",
" 44444444444444<<<<<<<<<< >>>,,,,,  222222222 ,,,,,,,,,,,,,,, 22",
" 44444444444444<<<<<<<<<< >>>,,,   2222222222 ,2,,,,,,,,,,,,,  2",
" 44444444444444<<<<<<<<<< >>>,>  >22222222222 ,2,,,,,,,,,,,,,, 2",
" 44444444444444<<<<<<<<<< >>>>> >>22222222222 ,2,,,,,,,,,,,,,, 2",
" 44444444444444<<<<<<<<<< >>    >222222222222 ,222222222,,22,, 2",
" 44444444444444<<<<<<<<<  >> >>>>>>>>>>>>>>>> >>>>>>>>>>>>>>>> >",
" 44444444444444<<<<<<<<  >>  >>>>>>>>>>>>>>>> >>>>>>>>>>>>>>>> >",
" 44444444444444<<<          >>>>>>>>>>>>>>>>> >>>>>>>>>>>>>>>> >",
"  4444444          <<<<<<<  >>                           >>>>   ",
"&  444444 33333<<<<<<<<<<<<    <<<<<<<<<<<<<<<<<<<<<<<<< >>>> <<",
"&& 4444   333333<<<<<<<<<<<<  <<<<<<<<<<<<<<<<<<<<<<<<<<  >>  <<",
"&&      333333333<<<<<<<<<<<< <<<<<<<<<<<<<<<<<<<<<<<<<<<    <<<",
"&& 333333333333333<<<<<<<<<<<  <<<<<<<<<<<<<<<<<<<<<<<<<<<< <<<<",
"&  333333333333333<<<<<<<<<<<< <<<<<<<<<<<<<<<<<<<<<<<<<<<< <<<<",
"& 333333333333333333<<<<<<<<<< <<<<<<<<<<<<<<<<<<<<<<<<<<<  <<<<",
"& 3333333333333333333<<<<<<<<< <<<<<<<<<<<<<<<<<<<<<<<<<<< <<<<<",
"& 333333333333333333333<<<<<<< <<<<<<<<<<<<<<<<<<<<<<<<<<< <<<<<",
"& 3333333333333333333333<<<<<< <<<<<<<<<<<<<<<<<<<<<<<<<<< <<<<<",
"  33333333333333333333333<<<<< <<<<<<<<<<<<<<<<<<<<<<<<<<< <<<<<",
" 3333333333333333333333333<<<< <<<<<<<<<<<<<<<<<<<<<<<<<<< <<<<3",
" 3333333333333333333333333<<<< <<<<<<<444<<<<<<44444<<<<<< <<<33",
" 3333333333333333333333333333< <<<<<<44444444444444444<<<< <<333",
" 3333333333333333333333333333< <<<<<4444444444444444444444 33333",
" 33333333333333333333333333333 444444444444444444444444444 33333",
" 33333333333333333333333333333 444444444444444444444444444 33333",
" 33333333333333333333333333333 444444444444444444444444444 33333",
" 33333333333333333333333333333 444444444444444444444444444 33333",
" 3333333333333333333333333333   44444444444444444444444444 33333",
" 3333333333333333333333333333 & 44444444444444444444444444 33333",
" 333333333333333333333333333  & 44444444444444444444444444   333",
"  33333333333333333333333333 && 4444444444444444444444444  & 333",
"&  333333333333333333333333  &&  444444444444444444444444 &&  33",
"&&  3333333333333333333333  &&&&  44444444444444444444444 &&& 33",
"&&&                        &&&&&&                         &&&   "
};
