/* XPM */
static char *b6261fd55e71472c8b16d93a3253da15qNea38L52t6DSeB9[] = {
/* columns rows colors chars-per-pixel */
"64 64 9 1 ",
"  c None",
". c black",
"X c #372929",
"o c #6F5637",
"O c #87715C",
"+ c #857868",
"@ c #B39D85",
"# c #E4CAA7",
"$ c #EEDFCA",
/* pixels */
"                                                                ",
"                                                                ",
"                                                                ",
"                                                                ",
"                                                                ",
"                                                                ",
"                                                                ",
"                                                                ",
"                                                                ",
"                                                                ",
"                                                                ",
"                                                                ",
"                                                                ",
"                                                                ",
"                                                                ",
"                                                                ",
"                                                                ",
"                                                                ",
"                                                                ",
"                                                                ",
"                                                                ",
"                                                                ",
"                                                                ",
"                                                                ",
"                                                                ",
"                                                                ",
"                                                                ",
"                                                                ",
"                                                                ",
"                                                                ",
"                                                                ",
"                                                                ",
"                                                                ",
"                                                                ",
"                                                                ",
"                                                                ",
"                                                                ",
"                                                                ",
"           ...........                                          ",
"          ..@@@###$$$$.                                         ",
"         .oo.@@###$$$$.                                         ",
"         .Oo.+@###$$$$.                                         ",
"         .O.o+X#XXX$X$.                                         ",
"         .OO++XX##XX$$.                                         ",
"          ...@X#X#X$X$.                                         ",
"            .@@###$$$$.                                         ",
"            .@@###$$$$.                                         ",
"            .@XX#XX$X$.                                         ",
"            .@@##X#X$$.                                         ",
"            .@@#X#XXX$.                                         ",
"            .@@######$.                                         ",
"            .@@@######.                                         ",
"          ..O@X@XXX#X#.                                         ",
"         .oo.@@X@@#XX#.                                         ",
"         .Oo.@@@X@@@X@.                                         ",
"         .O.o+@@@@@@@@.                                         ",
"         .OO++++++++++.                                         ",
"          ............                                          ",
"                                                                ",
"                                                                ",
"                                                                ",
"                                                                ",
"                                                                ",
"                                                                "
};
