/* XPM */
static char *_3222fb0274f4fc6841ac15ff68105d5IB4FgXiKtQGxAbtS[] = {
/* columns rows colors chars-per-pixel */
"64 64 9 1 ",
"  c None",
". c black",
"X c #3B2715",
"o c #492C31",
"O c #64413D",
"+ c #77553C",
"@ c #6C4643",
"# c #847F69",
"$ c #BFBA90",
/* pixels */
"                                             ......             ",
"                                           ..$$$$$$..      ..   ",
"                                          .#$$$$$$$$$.     .#.  ",
"                                         .#$$$$$$$$$$$.   .O$#. ",
"                                        .##$$$$$$$$$$$.   .O#$. ",
"                                        .##$$$$$$$$$$$$.  .O#$. ",
"                                        .##$$$$$$$$$$$$.  ..O#. ",
"                                        .###$...$$$$$..#. ..O#. ",
"                                        .####...$$$$$..#.  .... ",
"                                        .#####..##.###.#.  .#.  ",
"                                        .#########..###.   .$.  ",
"                                         .#######...##.    .$.  ",
"                                        ......#######.     ..   ",
"                                     ....+.....######.     o    ",
"                                    .+++...+...#.##.#.     o    ",
"                                    .++++..............    o    ",
"                                   .+++$+....+.+....+...   o    ",
"                                    ..#$....++++++.+++... .o.   ",
"                                   .+++++...++.+++.+++....$o$.  ",
"                                   .+++++...+#$+++.+++....#o$.  ",
"                                    .@@@..#$++.++#$$++..+..o#.  ",
"                                    ........++.+++#+++.....o.   ",
"                                    ......#.++.+++.@@@..   o    ",
"                                     .+.....++.+@+.@#@.    o    ",
"                                     .@.....@@.@@@.@@..    o    ",
"                                     ... ...@@.#@+.##.     o    ",
"                                     .#.  ...@.##@.#..     o    ",
"                                     .$$. ............     o    ",
"                                     ..$. ....    ....     o    ",
"                                      ..  ...     ...      o    ",
"                                      XXXX.XXXXXXX.XXXXX   o    ",
"                                     XXXXXXXXXXXXXXXXXXXX XoX   ",
"                                                                ",
"                                                                ",
"                                                                ",
"                                                                ",
"                                                                ",
"                                                                ",
"                                                                ",
"                                                                ",
"                                                                ",
"                                                                ",
"                                                                ",
"                                                                ",
"                                                                ",
"                                                                ",
"                                                                ",
"                                                                ",
"                                                                ",
"                                                                ",
"                                                                ",
"                                                                ",
"                                                                ",
"                                                                ",
"                                                                ",
"                                                                ",
"                                                                ",
"                                                                ",
"                                                                ",
"                                                                ",
"                                                                ",
"                                                                ",
"                                                                ",
"                                                                "
};
