/* XPM */
static char *result[] = {
/* columns rows colors chars-per-pixel */
"64 64 6 1 ",
"  c black",
". c #675644",
"X c #8180A8",
"o c #B3BBC8",
"O c #E8E7EF",
"+ c None",
/* pixels */
"++++++++++++++++++++++++++++++++++++++++++++++++++++++++++++++++",
"++++++++++++++++++++++++++++++++++++++++++++++++++++++++++++++++",
"++++++++++++++++++++++++++++++++++++++++++++++++++++++++++++++++",
"++++++++++++++++++++++++++++++++++++++++++++++++++++++++++++++++",
"++++++++++++++++++++++++++++++++++++++++++++++++++++++++++++++++",
"++++++++++++++++++++++++++++++++++++++++++++++++++++++++++++++++",
"++++++++++++++++++++++++++++++++++++++++++++++++++++++++++++++++",
"++++++++++++++++++++++++++++++++++++++++++++++++++++++++++++++++",
"++++++++++++++++++++++++++++++++++++++++++++++++++++++++++++++++",
"++++++++++++++++++++++++++++++++++++++++++++++++++++++++++++++++",
"++++++++++++++++++++++++++++++++++++++++++++++++++++++++++++++++",
"++++++++++++++++++++++++++++++++++++++++++++++++++++++++++++++++",
"++++++++++++++++++++++++++++++++++++++++++++++++++++++++++++++++",
"++++++++++++++++++++++++++++++++++++++++++++++++++++++++++++++++",
"++++++++++++++++++++++++++++++++++++++++++++++++++++++++++++++++",
"++++++++++++++++++++++++++++++++++++++++++++++++++++++++++++++++",
"++++++++++++++++++++++++++++++++++++++++++++++++++++++++++++++++",
"++++++++++++++++++++++++++++++++++++++++++++++++++++++++++++++++",
"++++++++++++++++++++++++++++++++++++++++++++++++++++++++++++++++",
"++++++++++++++++++++++++++++++++++++++++++++++++++++++++++++++++",
"++++++++++++++++++++++++++++++++++++++++++++++++++++++++++++++++",
"++++++++++++++++++++++++++++++++++++++++++++++++++++++++++++++++",
"++++++++++++++++++++++++++++++++++++++++++++++++++++++++++++++++",
"++++++++++++++++++++++++++++++++++++++++++++++++++++++++++++++++",
"++++++++++++++++++++++++++++++++++++++++++++++++++++++++++++++++",
"++++++++++++++++++++++++++++++++++++++++++++++++++++++++++++++++",
"++++++++++++++++++++++++++++++++++++++++++++++++++++++++++++++++",
"++++++++++++++++++++++++++++++++++++++++++++++++++++++++++++++++",
"++++++++++++++++++++++++++++++++++++++++++++++++++++++++++++++++",
"++++++++++++++++++++++++++++++++++++++++++++++++++++++++++++++++",
"++++++++++++++++++++++++++++++++++++++++++++++++++++++++++++++++",
"++++++++++++++++++++++++++++++++++++++++++++++++++++++++++++++++",
"++++++++++++++++++++++++++++++++++++++++++++++++++++++++++++++++",
"++++++++++++++++++++++++++++++++++++++++++++++++++++++++++++++++",
"++++++++++++++++++++++++++++++++++++++++++++++++++++++++++++++++",
"++++++++++++++++++++++++++++++++++++++++++++++++++++++++++++++++",
"++++++++++++++++++++++++++++++++++++++++++++++++++++++++++++++++",
"++++++++++++++++++++++++++++++++++++++++++++++++++++++++++++++++",
"++++++++++++++++++++++++++++++++++++++++++++++++++++++++++++++++",
"++++++++++++++++++++++++++++++++++++++++++++++++++++++++++++++++",
"++++++++++++++++++++++++++++++++++++++++++++++++++++++++++++++++",
"++++++++++++++++++++++++++++++++++++++++++++++++++++++++++++++++",
"++++++++++++++++++++++++++++++++++++++++++++++++++++++++++++++++",
"++++++++++++++++++++++++++++++++++++++++++++++++++++++++++++++++",
"++++++++++++++++++++++++++++++++++++++++++++++++++++++++++++++++",
"+++++++++++++      +++++++++++++++++++++++++++++++++++++++++++++",
"+++++++++++  oooooo  +++++++++++++++++++++++++++++++++++++++++++",
"++++++++++ XooooOOOoo ++++++++++++++++++++++++++++++++++++++++++",
"+++++++++ XXXXoooOOOOo +++++++++++++++++++++++++++++++++++++++++",
"++++++++ XX XXooXXoooX +++++++++++++++++++++++++++++++++++++++++",
"++++++++ X XXooX  XXX X ++++++++++++++++++++++++++++++++++++++++",
"+++++++++  XXoX       X ++++++++++++++++++++++++++++++++++++++++",
"++++++++++ XXoX       X ++++++++++++++++++++++++++++++++++++++++",
"+++++++++  XXoX       X ++++++++++++++++++++++++++++++++++++++++",
"++++++++ ooOXooX      X ++++++++++++++++++++++++++++++++++++++++",
"+++++++ XoooXoooX    X o +++++++++++++++++++++++++++++++++++++++",
"+++++++ XX  XooooXXXXo X +++++++++++++++++++++++++++++++++++++++",
"++++++++  + XXooooooo   ++++++++++++++++++++++++++++++++++++++++",
"+++++++++++ XXXXooooX ++++++++++++++++++++++++++++++++++++++++++",
"++++++++++ XXXXXXXXX +++++++++++++++++++++++++++++++++++++++++++",
"+++++++++++  XXXXX  ++++++++++++++++++++++++++++++++++++++++++++",
"+++++++++....     ......++++++++++++++++++++++++++++++++++++++++",
"++++++++.................+++++++++++++++++++++++++++++++++++++++",
"+++++++++...............++++++++++++++++++++++++++++++++++++++++"
};
