/* XPM */
static char *result[] = {
/* columns rows colors chars-per-pixel */
"64 64 6 1 ",
"  c black",
". c #675644",
"X c #8180A8",
"o c #B3BBC8",
"O c #E8E7EF",
"+ c None",
/* pixels */
"++++++++++++++++++++++++++++++++++++++++++++++++++++++++++++++++",
"++++++++++++++++++++++++++++++++++++++++++++++++++++++++++++++++",
"++++++++++++++++++++++++++++++++++++++++++++++++++++++++++++++++",
"++++++++++++++++++++++++++++++++++++++++++++++++++++++++++++++++",
"++++++++++++++++++++++++++++++++++++++++++++++++++++++++++++++++",
"++++++++++++++++++++++++++++++++++++++++++++++++++++++++++++++++",
"++++++++++++++++++++++++++++++++++++++++++++++++++++++++++++++++",
"++++++++++++++++++++++++++++++++++++++++++++++++++++++++++++++++",
"++++++++++++++++++++++++++++++++++++++++++++++++++++++++++++++++",
"++++++++++++++++++++++++++++++++++++++++++++++++++++++++++++++++",
"++++++++++++++++++++++++++++++++++++++++++++++++++++++++++++++++",
"++++++++++++++++++++++++++++++++++++++++++++++++++++++++++++++++",
"++++++++++++++++++++++++++++++++++++++++++++++++++++++++++++++++",
"++++++++++++++++++++++++++++++++++++++++++++++++++++++++++++++++",
"++++++++++++++++++++++++++++++++++++++++++++++++++++++++++++++++",
"++++++++++++++++++++++++++++++++++++++++++++++++++++++++++++++++",
"++++++++++++++++++++++++++++++++++++++++++++++++++++++++++++++++",
"++++++++++++++++++++++++++++++++++++++++++++++++++++++++++++++++",
"++++++++++++++++++++++++++++++++++++++++++++++++++++++++++++++++",
"++++++++++++++++++++++++++++++++++++++++++++++++++++++++++++++++",
"++++++++++++++++++++++++++++++++++++++++++++++++++++++++++++++++",
"++++++++++++++++++++++++++++++++++++++++++++++++++++++++++++++++",
"++++++++++++++++++++++++++++++++++++++++++++++++++++++++++++++++",
"++++++++++++++++++++++++++++++++++++++++++++++++++++++++++++++++",
"++++++++++++++++++++++++++++++++++++++++++++++++++++++++++++++++",
"++++++++++++++++++++++++++++++++++++++++++++++++++++++++++++++++",
"++++++++++++++++++++++++++++++++++++++++++++++++++++++++++++++++",
"++++++++++++++++++++++++++++++++++++++++++++++++++++++++++++++++",
"++++++++++++++++++++++++++++++++++++++++++++++++++++++++++++++++",
"++++++++++++++++++++++++++++++++++++++++++++++++++++++++++++++++",
"++++++++++++++++++++++++++++++++++++++++++++++++++++++++++++++++",
"++++++++++++++++++++++++++++++++++++++++++++++++++++++++++++++++",
"++++++++++++++++++++++++++++++++++++++++++++++++++++++++++++++++",
"++++++++++++++++++++++++++++++++++++++++++++++++++++++++++++++++",
"++++++++++++++++++++++++++++++++++++++++++++++++++++++++++++++++",
"++++++++++++++++++++++++++++++++++++++++++++++++++++++++++++++++",
"++++++++++++++++++++++++++++++++++++++++++++++++++++++++++++++++",
"++++++++++++++++++++++++++++++++++++++++++++++++++++++++++++++++",
"++++++++++++++++++++++++++++++++++++++++++++++++++++++++++++++++",
"++++++++++++++++++++++++++++++++++++++++++++++++++++++++++++++++",
"++++++++++++++++++++++++++++++++++++++++++++++++++++++++++++++++",
"++++++++++++++++++++++++++++++++++++++++++++++++++++++++++++++++",
"+++++++++++++      +++++++++++++++++++++++++++++++++++++++++++++",
"+++++++++++  oooooo  +++++++++++++++++++++++++++++++++++++++++++",
"++++++++++ ooOOOoooXX ++++++++++++++++++++++++++++++++++++++++++",
"+++++++++ oOOOOoooXXXX +++++++++++++++++++++++++++++++++++++++++",
"+++++++++ XoooXXooXX XX ++++++++++++++++++++++++++++++++++++++++",
"++++++++ X XXX  XooXX X ++++++++++++++++++++++++++++++++++++++++",
"++++++++ X       XoXX  +++++++++++++++++++++++++++++++++++++++++",
"++++++++ X       XoXX ++++++++++++++++++++++++++++++++++++++++++",
"++++++++ X       XoXX  +++++++++++++++++++++++++++++++++++++++++",
"++++++++ X      XooXOoo ++++++++++++++++++++++++++++++++++++++++",
"+++++++ o X    XoooXoooX +++++++++++++++++++++++++++++++++++++++",
"+++++++ X oXXXXoooXX  XX +++++++++++++++++++++++++++++++++++++++",
"++++++++   oooooooXX +  ++++++++++++++++++++++++++++++++++++++++",
"++++++++++ XooooXXXX +++++++++++++++++++++++++++++++++++++++++++",
"+++++++++++ XXXXXXXXX ++++++++++++++++++++++++++++++++++++++++++",
"++++++++++++  XXXXX  +++++++++++++++++++++++++++++++++++++++++++",
"++++++++++++++     +++++++++++++++++++++++++++++++++++++++++++++",
"++++++++++++++++++++++++++++++++++++++++++++++++++++++++++++++++",
"++++++++++++++++++++++++++++++++++++++++++++++++++++++++++++++++",
"++++++++++............++++++++++++++++++++++++++++++++++++++++++",
"+++++++++..............+++++++++++++++++++++++++++++++++++++++++",
"++++++++++............++++++++++++++++++++++++++++++++++++++++++"
};
