/* XPM */
static char *result[] = {
/* columns rows colors chars-per-pixel */
"64 64 89 1 ",
"  c black",
". c #0A0501",
"X c #0E0701",
"o c #0D0502",
"O c #160807",
"+ c #150D0A",
"@ c #271A0A",
"# c #2A1A0D",
"$ c #2B190F",
"% c #2F1C0E",
"& c #311A0C",
"* c #3B2715",
"= c #081526",
"- c #051B33",
"; c #462512",
": c #4B2413",
"> c #4C2715",
", c #472E16",
"< c #4F2B11",
"1 c #492815",
"2 c #4A2B16",
"3 c #432719",
"4 c #472519",
"5 c #49291A",
"6 c #513412",
"7 c #5D331B",
"8 c #5F371D",
"9 c #623317",
"0 c #633617",
"q c #693817",
"w c #63371C",
"e c #66371D",
"r c #65391C",
"t c #693A1E",
"y c #6E3D1F",
"u c #733D19",
"i c #713C1C",
"p c #713C1D",
"a c #4C3A24",
"s c #673B20",
"d c #663A21",
"f c #653C20",
"g c #6B3823",
"h c #693B23",
"j c #082340",
"k c #122A44",
"l c #13314B",
"z c #183851",
"x c #1D3F58",
"c c #203E58",
"v c #1D4056",
"b c #254A5D",
"n c #244362",
"m c #2F5363",
"M c #315B73",
"N c #404143",
"B c #475766",
"V c #4A5E65",
"C c #4C656C",
"Z c #5A6E6F",
"A c #456B7E",
"S c #BA2525",
"D c #8C4511",
"F c #874719",
"G c #8B4919",
"H c #88491E",
"J c #995117",
"K c #9A511C",
"L c #9E511D",
"P c #9E531C",
"I c #AC5B19",
"U c #AD5D1E",
"Y c #A6791E",
"T c #925E24",
"R c #9C632E",
"E c #BA8B1F",
"W c #B8A018",
"Q c #EE9E11",
"! c #C7B014",
"~ c #EDCA0C",
"^ c #E8D70E",
"/ c #F0CC1E",
"( c #E2E609",
") c #FFF60A",
"_ c #558184",
"` c #67999A",
"' c #B7B8A6",
"] c #C5C4A8",
"[ c azure",
/* pixels */
"B-----BBBBBBB-------BBBBB---------BB------BBBBB------BB--------B",
"--kkk---BB----kkkkk-------kkkkk------kkkk--B----kkkk--B-k---kk-B",
"-kkkkkk----kkkkkkkkkkkk-kkkkkkkk-kkkkkkkkkk--kkkkkkkk---kkkkkk--",
"====kkkk-kkkkk============k====k-kk===k===k-kkkk===kk=======k===",
"jjj============jjjjjjjjjj===jj======j===========================",
"jjj==jjjjjjj==jjjjjnnnjjjj=jjjjjjjjjjjj=jjjjjj=jjjjjjjjjjjj=nnnj",
"nnj==jjnnnnj=jjjjjnn         jjnnnnnnnj=jnnn     jnnnnnnnnj=  nj",
"        n         n  lllllll  j **         n lll jn            j",
" llllll   lllllll   lllllllll   **llllllll   lll    lll llllll  ",
" xllllll lxllllllll lxllllllll l,,lllllllll xllllllllll lllllll ",
" xxxxxxl lxxxxxxxxl lxxxxxxxll l*,xxxxxxxll xxxxxxxlll  llxllll ",
" lllllll llllllllll llll        **lll          lll        xxxxl ",
"    ll                   zzzzzzz66    zzzzzzzz     vvvvvv  l    ",
"zzz  l vvvvvv   vvvvvvv zzzzzz.aTTa<@.zzzzzzzzzz  vvvvvvvv   zzz",
"zzzz   vvvvvvv vvvvvvvv zzzzzO:REERsr4Ozzzzzzzzz vvvvvvvvv  zzzz",
"zzzzz Mvvvvvvv vMMvvvvv zMMzX;iY!!YHiw;Xzzzzzzzz vvvvvvvvvv zMzz",
"zzMMz MMMvvMMv vvMMMMvv  zMM#quW^~WIKpe%zzzzzzzz vvMMMMMMvv zMMM",
"zMM       vv        vvvv    >hD/SS/IUGf2MMMMzz       vvvvv    zz",
"    bbbbb    mmmmmm  vvv  bb9dIS[)SIILf7 zzz   mmmmm       bb   ",
"bbbbbbbbbb  mmmmmmmm  v  bbb9dIS))SIILf7     mmmmmmmmmmmm bbbbbb",
"bbbbbbbbbbb mmmmmmmmm   bbbb>hDISQSIUGf2 mmmmmmmmmmmmmmmm bbbbbb",
"bbbbbbbbbbb mmmmmmmmmm bbbbb#quJIISIKpe% mmmmmmmmmmmmmmmm bbbbbb",
"bbbbbbbbbbb mmAmmmAAmm bbAAAo3wyFPPFyw3o mmmmmmmmmmmmmmmm bbbbbb",
"bbbbbbbAAAb mAAccccccc cccccc+5ttggtt5+c ccmAAAAmmAAAmccc ccAAbb",
"bAAAAAbAccc cccc              .$1801$.cc  ccccccccccccc    ccAAb",
"ccccccccccc ccc  CCCCCCCCCCCCC   &(& cc    ccccccccccc  __  cccc",
"             c  CCCCCCCCCCCCCCC  &&&               cc  ____     ",
"____________   CCCCCCCCCCCCCCCCC c  CCCCCCCCCCCCCC    __________",
"_____________ CCCCCCCCCCCCCCCCCC   CCCCCCCCCCCCCCCC  ___________",
"_____________ CCCCCCCCCCCCCCCCCCC CCCCCCCCCCCCCCCCCC ___________",
"____________` CCCCCCCCCCCCCCCCCCC CCCCCCCCCCCCCCCCCC ___________",
"___________`` CC_CCCCCCCCCCCCCCCC CCCCCCCCCCCCCCCCCC ___________",
"__________``_ CC_CCCCCCCCCCCCCCCC CCCCCCCCCCCCCCCCCC ___________",
"__`````````__ CC___________CCCCCC CCCCCCCCCCCCCCCCCC ___________",
"________VVVVV VVVVVVVVVVVVVVCCCCC CCCC_____________C ___________",
"VVVVVVVVVVVVV VVVVVVVVVVVVVVCCCCV VVVVVVVVVVVVVVVVVV VVVVVVVVVVV",
"VVVVVVVVVVVVV              VVCCVV VVVVVVVVVVVVVVVVVV VVVVVVVVVVV",
"VVVVVVVVV     ZZZZZZZZZZZZ  VVVVV VVVVVVVVVVVVVVVVVV  VVVVVVVVVV",
"       V  ZZZZZZZZZZZZZZZZZ  VVVV                      VV       ",
"ZZZZZZ   ZZZZZZZZZZZZZZZZZZZ  V   ZZZZZZZZZZZZZZZZZZZZ    ZZZZZZ",
"ZZZZZZZ ZZZZZZZZZZZZZZZZZZZZZ   ZZZZZZZZZZZZZZZZZZZZZZZ  ZZZZZZZ",
"ZZZZZZZ  ZZZZZZZZZZZZZZZZZZZZZ ZZZZZZZZZZZZZZZZZZZZZZZ  ZZZZZZZZ",
"ZZZZZZZZ ZZZZZZZZZZZZZZZZZZZZZ ZZZZZZZZZZZZZZZZZZZZZZZ ZZZZZZZZZ",
"ZZZZZZZZ ZZZZZZZZZZZZZZZZZZZZZ ZZZZZZZZZZZZZZZZZZZZZZZ ZZZZZZZZZ",
"ZZZZZZZZ ZZZZZZZZZZZZZZZZZZZZZ ZZZZZZZZZZZZZZZZZZZZZZZ ZZZZZZZZZ",
"ZZZZZZZZ ZZZZZZZZZZZZZZZZZZZZZ ZZZZZZZZZZZZZZZZZZZZZZZ ZZZZZZZZZ",
"ZZZZZZZZ ZZZZZZZZZZZZZZZZZZZZZ ZZZZZZZZZZZZZZZZZZZZZZZ ZZZZZZZZZ",
"ZZZZZZZZ ZZZZZZZZZZZZZZZZZZZZZ ZZZZZZZZZZZZZZZZZZZZZZZ ZZZZZZZZZ",
"ZZZZZZZZ ZZZZZZZZZZZZZZZZZZZZZ ZZZZZZZZZZZZZZZZZZZZZZZ ZZZZZZZZZ",
"''''''ZZ ZZ]]]]]]]]]]]]]ZZZZZZ ZZ]]ZZZZZZZ]]]]]]]]]ZZZ ZZZZZZ'''",
"'''''''Z Z]]]]]]]]]]]]]]]]]ZZZ Z]]]]]]ZZ]]]]]]]]]]]]]Z ZZZZ'''''",
"'''''''' ]]]]]]]]]]]]]]]]]]]]Z ]]]]]]]]]]]]]]]]]]]]]]] '''''''''",
"'''''''' ]]]]]]]]]]]]]]]]]]]]] ]]]]]]]]]]]]]]]]]]]]]]] '''''''''",
"'''''''' ]]]]]]]]]]]]]]]]]]]]] ]]]]]]]]]]]]]]]]]]]]]]] '''''''''",
"'''''''' ]]]]]]]]]]]]]]]]]]]]] ]]]]]]]]]]]]]]]]]]]]]]] '''''''''",
"'''''''' ]]]]]]]]]]]]]]]]]]]]] ]]]]]]]]]]]]]]]]]]]]]]] '''''''''",
"'''''''' ]]]]]]]]]]]]]]]]]]]]] ]]]]]]]]]]]]]]]]]]]]]]] '''''''''",
"'''''''' ]]]]]]]]]]]]]]]]]]]]] ]]]]]]]]]]]]]]]]]]]]]]] '''''''''",
"'''''''' ]]]]]]]]]]]]]]]]]]]]] ]]]]]]]]]]]]]]]]]]]]]]]  ''''''''",
"'''''''' ]]]]]]]]]]]]]]]]]]]]] ]]]]]]]]]]]]]]]]]]]]]]]] ''''''''",
"'''''''  ]]]]]]]]]]]]]]]]]]]]] ]]]]]]]]]]]]]]]]]]]]]]]] ''''''''",
"''''''    ]]]]]]]]]]]]]]]]]]]]   ]]]]]]]]]]]]]]]]]]]    ''''''''",
"'''    NN  ]]]]]]]]]]]]]]]]]]  N  ]]]]]]]]]]]]]]]]]]  N   ''''''",
"    NNNNNN                    NNN                    NNNN       "
};
