/* XPM */
static char *result[] = {
/* columns rows colors chars-per-pixel */
"64 64 52 1 ",
"  c black",
". c #0C0603",
"X c #170D06",
"o c #2E190D",
"O c #3B2715",
"+ c #081526",
"@ c #051B33",
"# c #482714",
"$ c #472E16",
"% c #4B2915",
"& c #543614",
"* c #60341B",
"= c #69391D",
"- c #713D1C",
"; c #795218",
": c #082340",
"> c #122A44",
", c #13314B",
"< c #183851",
"1 c #1D3F58",
"2 c #203E58",
"3 c #1D4056",
"4 c #254A5D",
"5 c #244362",
"6 c #2F5363",
"7 c #315B73",
"8 c #404143",
"9 c #475766",
"0 c #4A5E65",
"q c #4C656C",
"w c #5A6E6F",
"e c #456B7E",
"r c #BA2525",
"t c #87481B",
"y c #9B5119",
"u c #99501A",
"i c #905F1F",
"p c #AE5B18",
"a c #A2761E",
"s c #B78D1E",
"d c #B59918",
"f c #C2B117",
"g c #E8A20C",
"h c #E2CD0F",
"j c #E8D70E",
"k c #E9D70E",
"l c #FFF60A",
"z c #558184",
"x c #67999A",
"c c #B7B8A6",
"v c #C5C4A8",
"b c white",
/* pixels */
"9@@@@@9999999@@@@@@@99999@@@@@@@@@99@@@@@@99999@@@@@@99@@@@@@@@9",
"@@>>>@@@99@@@@>>>>>@@@@@@@>>>>>@@@@@@>>>>@@9@@@@>>>>@@9@>@@@>>@9",
"@>>>>>>@@@@>>>>>>>>>>>>@>>>>>>>>@>>>>>>>>>>@@>>>>>>>>@@@>>>>>>@@",
"++++>>>>@>>>>>++++++++++++>++++>@>>+++>+++>@>>>>+++>>+++++++>+++",
":::++++++++++++::::::::::+++::++++++:+++++++++++++++++++++++++++",
":::++:::::::++:::::555::::+::::::::::::+::::::+::::::::::::+555:",
"55:++::5555:+:::::55         ::5555555:+:555     :55555555:+  5:",
"        5         5  ,,,,,,,  : OO         5 ,,, :5            :",
" ,,,,,,   ,,,,,,,   ,,,,,,,,,   OO,,,,,,,,   ,,,    ,,, ,,,,,,  ",
" 1,,,,,, ,1,,,,,,,, ,1,,,,,,,, ,$$,,,,,,,,, 1,,,,,,,,,, ,,,,,,, ",
" 111111, ,11111111, ,1111111,, ,O$1111111,, 1111111,,,  ,,1,,,, ",
" ,,,,,,, ,,,,,,,,,, ,,,,        OO,,,          ,,,        1111, ",
"    ,,                   <<<<<<<&&    <<<<<<<<     333333  ,    ",
"<<<  , 333333   3333333 <<<<<<<&;;&<<<<<<<<<<<<<  33333333   <<<",
"<<<<   3333333 33333333 <<<<<.oissio.<<<<<<<<<<< 333333333  <<<<",
"<<<<< 73333333 37733333 <77<<#=affa=#<<<<<<<<<<< 3333333333 <7<<",
"<<77< 77733773 33777733  <77#=-djhd-=#<<<<<<<<<< 3377777733 <777",
"<77       33        3333   o=-ukrrku-=o77777<<       33333    <<",
"    44444    666666  333  4%=tprbbrpt=%  <<<   66666       44   ",
"4444444444  66666666  3  44*=yprblrpy=*4     666666666666 444444",
"44444444444 666666666   444*=yprllrpy=*4 6666666666666666 444444",
"44444444444 6666666666 4444%=tppgrrpt=%4 6666666666666666 444444",
"44444444444 66e666ee66 44eeo=-uprppu-=o4 6666666666666666 444444",
"4444444eee4 6ee2222222 22222#=-tyyt-=#e2 226eeee66eee6222 22ee44",
"4eeeee4e222 2222            X#======#X22  2222222222222    22ee4",
"22222222222 222  qqqqqqqqqqqq.o%**%o.22    22222222222  zz  2222",
"             2  qqqqqqqqqqqqqqq  22                22  zzzz     ",
"zzzzzzzzzzzz   qqqqqqqqqqqqqqqqq 2  qqqqqqqqqqqqqq    zzzzzzzzzz",
"zzzzzzzzzzzzz qqqqqqqqqqqqqqqqqq   qqqqqqqqqqqqqqqq  zzzzzzzzzzz",
"zzzzzzzzzzzzz qqqqqqqqqqqqqqqqqqq qqqqqqqqqqqqqqqqqq zzzzzzzzzzz",
"zzzzzzzzzzzzx qqqqqqqqqqqqqqqqqqq qqqqqqqqqqqqqqqqqq zzzzzzzzzzz",
"zzzzzzzzzzzxx qqzqqqqqqqqqqqqqqqq qqqqqqqqqqqqqqqqqq zzzzzzzzzzz",
"zzzzzzzzzzxxz qqzqqqqqqqqqqqqqqqq qqqqqqqqqqqqqqqqqq zzzzzzzzzzz",
"zzxxxxxxxxxzz qqzzzzzzzzzzzqqqqqq qqqqqqqqqqqqqqqqqq zzzzzzzzzzz",
"zzzzzzzz00000 00000000000000qqqqq qqqqzzzzzzzzzzzzzq zzzzzzzzzzz",
"0000000000000 00000000000000qqqq0 000000000000000000 00000000000",
"0000000000000              00qq00 000000000000000000 00000000000",
"000000000     wwwwwwwwwwww  00000 000000000000000000  0000000000",
"       0  wwwwwwwwwwwwwwwww  0000                      00       ",
"wwwwww   wwwwwwwwwwwwwwwwwww  0   wwwwwwwwwwwwwwwwwwww    wwwwww",
"wwwwwww wwwwwwwwwwwwwwwwwwwww   wwwwwwwwwwwwwwwwwwwwwww  wwwwwww",
"wwwwwww  wwwwwwwwwwwwwwwwwwwww wwwwwwwwwwwwwwwwwwwwwww  wwwwwwww",
"wwwwwwww wwwwwwwwwwwwwwwwwwwww wwwwwwwwwwwwwwwwwwwwwww wwwwwwwww",
"wwwwwwww wwwwwwwwwwwwwwwwwwwww wwwwwwwwwwwwwwwwwwwwwww wwwwwwwww",
"wwwwwwww wwwwwwwwwwwwwwwwwwwww wwwwwwwwwwwwwwwwwwwwwww wwwwwwwww",
"wwwwwwww wwwwwwwwwwwwwwwwwwwww wwwwwwwwwwwwwwwwwwwwwww wwwwwwwww",
"wwwwwwww wwwwwwwwwwwwwwwwwwwww wwwwwwwwwwwwwwwwwwwwwww wwwwwwwww",
"wwwwwwww wwwwwwwwwwwwwwwwwwwww wwwwwwwwwwwwwwwwwwwwwww wwwwwwwww",
"wwwwwwww wwwwwwwwwwwwwwwwwwwww wwwwwwwwwwwwwwwwwwwwwww wwwwwwwww",
"ccccccww wwvvvvvvvvvvvvvwwwwww wwvvwwwwwwwvvvvvvvvvwww wwwwwwccc",
"cccccccw wvvvvvvvvvvvvvvvvvwww wvvvvvvwwvvvvvvvvvvvvvw wwwwccccc",
"cccccccc vvvvvvvvvvvvvvvvvvvvw vvvvvvvvvvvvvvvvvvvvvvv ccccccccc",
"cccccccc vvvvvvvvvvvvvvvvvvvvv vvvvvvvvvvvvvvvvvvvvvvv ccccccccc",
"cccccccc vvvvvvvvvvvvvvvvvvvvv vvvvvvvvvvvvvvvvvvvvvvv ccccccccc",
"cccccccc vvvvvvvvvvvvvvvvvvvvv vvvvvvvvvvvvvvvvvvvvvvv ccccccccc",
"cccccccc vvvvvvvvvvvvvvvvvvvvv vvvvvvvvvvvvvvvvvvvvvvv ccccccccc",
"cccccccc vvvvvvvvvvvvvvvvvvvvv vvvvvvvvvvvvvvvvvvvvvvv ccccccccc",
"cccccccc vvvvvvvvvvvvvvvvvvvvv vvvvvvvvvvvvvvvvvvvvvvv ccccccccc",
"cccccccc vvvvvvvvvvvvvvvvvvvvv vvvvvvvvvvvvvvvvvvvvvvv  cccccccc",
"cccccccc vvvvvvvvvvvvvvvvvvvvv vvvvvvvvvvvvvvvvvvvvvvvv cccccccc",
"ccccccc  vvvvvvvvvvvvvvvvvvvvv vvvvvvvvvvvvvvvvvvvvvvvv cccccccc",
"cccccc    vvvvvvvvvvvvvvvvvvvv   vvvvvvvvvvvvvvvvvvv    cccccccc",
"ccc    88  vvvvvvvvvvvvvvvvvv  8  vvvvvvvvvvvvvvvvvv  8   cccccc",
"    888888                    888                    8888       "
};
