/* XPM */
static char *result[] = {
/* columns rows colors chars-per-pixel */
"64 64 52 1 ",
"  c black",
". c #0C0603",
"X c #170D06",
"o c #2E190D",
"O c #3B2715",
"+ c #081526",
"@ c #051B33",
"# c #482714",
"$ c #472E16",
"% c #4B2915",
"& c #543614",
"* c #60341B",
"= c #69391D",
"- c #713D1C",
"; c #795218",
": c #082340",
"> c #122A44",
", c #13314B",
"< c #183851",
"1 c #1D3F58",
"2 c #203E58",
"3 c #1D4056",
"4 c #254A5D",
"5 c #244362",
"6 c #2F5363",
"7 c #315B73",
"8 c #404143",
"9 c #475766",
"0 c #4A5E65",
"q c #4C656C",
"w c #5A6E6F",
"e c #456B7E",
"r c #BA2525",
"t c #87481B",
"y c #9B5119",
"u c #99501A",
"i c #905F1F",
"p c #AE5B18",
"a c #A2761E",
"s c #B78D1E",
"d c #B59918",
"f c #C2B117",
"g c #E8A20C",
"h c #E2CD0F",
"j c #E8D70E",
"k c #E9D70E",
"l c #FFF60A",
"z c #558184",
"x c #67999A",
"c c #B7B8A6",
"v c #C5C4A8",
"b c white",
/* pixels */
"       8888                    888                    888888    ",
"cccccc   8  vvvvvvvvvvvvvvvvvv  8  vvvvvvvvvvvvvvvvvv  88    ccc",
"cccccccc    vvvvvvvvvvvvvvvvvvv   vvvvvvvvvvvvvvvvvvvv    cccccc",
"cccccccc vvvvvvvvvvvvvvvvvvvvvvvv vvvvvvvvvvvvvvvvvvvvv  ccccccc",
"cccccccc vvvvvvvvvvvvvvvvvvvvvvvv vvvvvvvvvvvvvvvvvvvvv cccccccc",
"cccccccc  vvvvvvvvvvvvvvvvvvvvvvv vvvvvvvvvvvvvvvvvvvvv cccccccc",
"ccccccccc vvvvvvvvvvvvvvvvvvvvvvv vvvvvvvvvvvvvvvvvvvvv cccccccc",
"ccccccccc vvvvvvvvvvvvvvvvvvvvvvv vvvvvvvvvvvvvvvvvvvvv cccccccc",
"ccccccccc vvvvvvvvvvvvvvvvvvvvvvv vvvvvvvvvvvvvvvvvvvvv cccccccc",
"ccccccccc vvvvvvvvvvvvvvvvvvvvvvv vvvvvvvvvvvvvvvvvvvvv cccccccc",
"ccccccccc vvvvvvvvvvvvvvvvvvvvvvv vvvvvvvvvvvvvvvvvvvvv cccccccc",
"ccccccccc vvvvvvvvvvvvvvvvvvvvvvv vvvvvvvvvvvvvvvvvvvvv cccccccc",
"ccccccccc vvvvvvvvvvvvvvvvvvvvvvv wvvvvvvvvvvvvvvvvvvvv cccccccc",
"cccccwwww wvvvvvvvvvvvvvwwvvvvvvw wwwvvvvvvvvvvvvvvvvvw wccccccc",
"cccwwwwww wwwvvvvvvvvvwwwwwwwvvww wwwwwwvvvvvvvvvvvvvww wwcccccc",
"wwwwwwwww wwwwwwwwwwwwwwwwwwwwwww wwwwwwwwwwwwwwwwwwwww wwwwwwww",
"wwwwwwwww wwwwwwwwwwwwwwwwwwwwwww wwwwwwwwwwwwwwwwwwwww wwwwwwww",
"wwwwwwwww wwwwwwwwwwwwwwwwwwwwwww wwwwwwwwwwwwwwwwwwwww wwwwwwww",
"wwwwwwwww wwwwwwwwwwwwwwwwwwwwwww wwwwwwwwwwwwwwwwwwwww wwwwwwww",
"wwwwwwwww wwwwwwwwwwwwwwwwwwwwwww wwwwwwwwwwwwwwwwwwwww wwwwwwww",
"wwwwwwwww wwwwwwwwwwwwwwwwwwwwwww wwwwwwwwwwwwwwwwwwwww wwwwwwww",
"wwwwwwwww wwwwwwwwwwwwwwwwwwwwwww wwwwwwwwwwwwwwwwwwwww wwwwwwww",
"wwwwwwww  wwwwwwwwwwwwwwwwwwwwwww wwwwwwwwwwwwwwwwwwwww  wwwwwww",
"wwwwwww  wwwwwwwwwwwwwwwwwwwwwww   wwwwwwwwwwwwwwwwwwwww wwwwwww",
"wwwwww    wwwwwwwwwwwwwwwwwwww   0  wwwwwwwwwwwwwwwwwww   wwwwww",
"       00                      0000  wwwwwwwwwwwwwwwww  0       ",
"0000000000  000000000000000000 00000  wwwwwwwwwwww     000000000",
"00000000000 000000000000000000 00qq00              0000000000000",
"00000000000 000000000000000000 0qqqq00000000000000 0000000000000",
"zzzzzzzzzzz qzzzzzzzzzzzzzqqqq qqqqq00000000000000 00000zzzzzzzz",
"zzzzzzzzzzz qqqqqqqqqqqqqqqqqq qqqqqqzzzzzzzzzzzqq zzxxxxxxxxxzz",
"zzzzzzzzzzz qqqqqqqqqqqqqqqqqq qqqqqqqqqqqqqqqqzqq zxxzzzzzzzzzz",
"zzzzzzzzzzz qqqqqqqqqqqqqqqqqq qqqqqqqqqqqqqqqqzqq xxzzzzzzzzzzz",
"zzzzzzzzzzz qqqqqqqqqqqqqqqqqq qqqqqqqqqqqqqqqqqqq xzzzzzzzzzzzz",
"zzzzzzzzzzz qqqqqqqqqqqqqqqqqq qqqqqqqqqqqqqqqqqqq zzzzzzzzzzzzz",
"zzzzzzzzzzz  qqqqqqqqqqqqqqqq   qqqqqqqqqqqqqqqqqq zzzzzzzzzzzzz",
"zzzzzzzzzz    qqqqqqqqqqqqqq  2 qqqqqqqqqqqqqqqqq   zzzzzzzzzzzz",
"     zzzz  22                22  qqqqqqqqqqqqqqq  2             ",
"2222  zz  22222222222    22.o%**%o.qqqqqqqqqqqq  222 22222222222",
"4ee22    2222222222222  22X#======#X            2222 222e4eeeee4",
"44ee22 2226eee66eeee622 2e#=-tyyt-=#22222 2222222ee6 4eee4444444",
"444444 6666666666666666 4o=-upprpu-=oee44 66ee666e66 44444444444",
"444444 6666666666666666 4%=tprrgppt=%4444 6666666666 44444444444",
"444444 6666666666666666 4*=yprllrpy=*444   666666666 44444444444",
"444444 666666666666     4*=yprlbrpy=*44  3  66666666  4444444444",
"   44       66666   <<<  %=tprbbrpt=%4  333  666666    44444    ",
"<<    33333       <<77777o=-ukrrku-=o   3333        33       77<",
"777< 3377777733 <<<<<<<<<<#=-dhjd-=#77<  33777733 37733777 <77<<",
"<<7< 3333333333 <<<<<<<<<<<#=affa=#<<77< 33333773 33333337 <<<<<",
"<<<<  333333333 <<<<<<<<<<<.oissio.<<<<< 33333333 3333333   <<<<",
"<<<   33333333  <<<<<<<<<<<<<&;;&<<<<<<< 3333333   333333 ,  <<<",
"    ,  333333     <<<<<<<<    &&<<<<<<<                   ,,    ",
" ,1111        ,,,          ,,,OO        ,,,, ,,,,,,,,,, ,,,,,,, ",
" ,,,,1,,  ,,,1111111 ,,1111111$O, ,,1111111, ,11111111, ,111111 ",
" ,,,,,,, ,,,,,,,,,,1 ,,,,,,,,,$$, ,,,,,,,,1, ,,,,,,,,1, ,,,,,,1 ",
"  ,,,,,, ,,,    ,,,   ,,,,,,,,OO   ,,,,,,,,,   ,,,,,,,   ,,,,,, ",
":            5: ,,, 5         OO :  ,,,,,,,  5         5        ",
":5  +:55555555:     555:+:5555555::         55:::::+:5555::++:55",
":555+::::::::::::+::::::+::::::::::::+::::555:::::++:::::::++:::",
"+++++++++++++++++++++++++++:++++++::+++::::::::::++++++++++++:::",
"+++>+++++++>>+++>>>>@>+++>+++>>@>++++>++++++++++++>>>>>@>>>>++++",
"@@>>>>>>@@@>>>>>>>>@@>>>>>>>>>>@>>>>>>>>@>>>>>>>>>>>>@@@@>>>>>>@",
"9@>>@@@>@9@@>>>>@@@@9@@>>>>@@@@@@>>>>>@@@@@@@>>>>>@@@@99@@@>>>@@",
"9@@@@@@@@99@@@@@@99999@@@@@@99@@@@@@@@@99999@@@@@@@9999999@@@@@9"
};
