/* XPM */
static char *result[] = {
/* columns rows colors chars-per-pixel */
"64 64 89 1 ",
"  c black",
". c #0A0501",
"X c #0E0701",
"o c #0D0502",
"O c #160807",
"+ c #150D0A",
"@ c #271A0A",
"# c #2A1A0D",
"$ c #2B190F",
"% c #2F1C0E",
"& c #311A0C",
"* c #3B2715",
"= c #081526",
"- c #051B33",
"; c #462512",
": c #4B2413",
"> c #4C2715",
", c #472E16",
"< c #4F2B11",
"1 c #492815",
"2 c #4A2B16",
"3 c #432719",
"4 c #472519",
"5 c #49291A",
"6 c #513412",
"7 c #5D331B",
"8 c #5F371D",
"9 c #623317",
"0 c #633617",
"q c #693817",
"w c #63371C",
"e c #66371D",
"r c #65391C",
"t c #693A1E",
"y c #6E3D1F",
"u c #733D19",
"i c #713C1C",
"p c #713C1D",
"a c #4C3A24",
"s c #673B20",
"d c #663A21",
"f c #653C20",
"g c #6B3823",
"h c #693B23",
"j c #082340",
"k c #122A44",
"l c #13314B",
"z c #183851",
"x c #1D3F58",
"c c #203E58",
"v c #1D4056",
"b c #254A5D",
"n c #244362",
"m c #2F5363",
"M c #315B73",
"N c #404143",
"B c #475766",
"V c #4A5E65",
"C c #4C656C",
"Z c #5A6E6F",
"A c #456B7E",
"S c #BA2525",
"D c #8C4511",
"F c #874719",
"G c #8B4919",
"H c #88491E",
"J c #995117",
"K c #9A511C",
"L c #9E511D",
"P c #9E531C",
"I c #AC5B19",
"U c #AD5D1E",
"Y c #A6791E",
"T c #925E24",
"R c #9C632E",
"E c #BA8B1F",
"W c #B8A018",
"Q c #EE9E11",
"! c #C7B014",
"~ c #EDCA0C",
"^ c #E8D70E",
"/ c #F0CC1E",
"( c #E2E609",
") c #FFF60A",
"_ c #558184",
"` c #67999A",
"' c #B7B8A6",
"] c #C5C4A8",
"[ c azure",
/* pixels */
"       NNNN                    NNN                    NNNNNN    ",
"''''''   N  ]]]]]]]]]]]]]]]]]]  N  ]]]]]]]]]]]]]]]]]]  NN    '''",
"''''''''    ]]]]]]]]]]]]]]]]]]]   ]]]]]]]]]]]]]]]]]]]]    ''''''",
"'''''''' ]]]]]]]]]]]]]]]]]]]]]]]] ]]]]]]]]]]]]]]]]]]]]]  '''''''",
"'''''''' ]]]]]]]]]]]]]]]]]]]]]]]] ]]]]]]]]]]]]]]]]]]]]] ''''''''",
"''''''''  ]]]]]]]]]]]]]]]]]]]]]]] ]]]]]]]]]]]]]]]]]]]]] ''''''''",
"''''''''' ]]]]]]]]]]]]]]]]]]]]]]] ]]]]]]]]]]]]]]]]]]]]] ''''''''",
"''''''''' ]]]]]]]]]]]]]]]]]]]]]]] ]]]]]]]]]]]]]]]]]]]]] ''''''''",
"''''''''' ]]]]]]]]]]]]]]]]]]]]]]] ]]]]]]]]]]]]]]]]]]]]] ''''''''",
"''''''''' ]]]]]]]]]]]]]]]]]]]]]]] ]]]]]]]]]]]]]]]]]]]]] ''''''''",
"''''''''' ]]]]]]]]]]]]]]]]]]]]]]] ]]]]]]]]]]]]]]]]]]]]] ''''''''",
"''''''''' ]]]]]]]]]]]]]]]]]]]]]]] ]]]]]]]]]]]]]]]]]]]]] ''''''''",
"''''''''' ]]]]]]]]]]]]]]]]]]]]]]] Z]]]]]]]]]]]]]]]]]]]] ''''''''",
"'''''ZZZZ Z]]]]]]]]]]]]]ZZ]]]]]]Z ZZZ]]]]]]]]]]]]]]]]]Z Z'''''''",
"'''ZZZZZZ ZZZ]]]]]]]]]ZZZZZZZ]]ZZ ZZZZZZ]]]]]]]]]]]]]ZZ ZZ''''''",
"ZZZZZZZZZ ZZZZZZZZZZZZZZZZZZZZZZZ ZZZZZZZZZZZZZZZZZZZZZ ZZZZZZZZ",
"ZZZZZZZZZ ZZZZZZZZZZZZZZZZZZZZZZZ ZZZZZZZZZZZZZZZZZZZZZ ZZZZZZZZ",
"ZZZZZZZZZ ZZZZZZZZZZZZZZZZZZZZZZZ ZZZZZZZZZZZZZZZZZZZZZ ZZZZZZZZ",
"ZZZZZZZZZ ZZZZZZZZZZZZZZZZZZZZZZZ ZZZZZZZZZZZZZZZZZZZZZ ZZZZZZZZ",
"ZZZZZZZZZ ZZZZZZZZZZZZZZZZZZZZZZZ ZZZZZZZZZZZZZZZZZZZZZ ZZZZZZZZ",
"ZZZZZZZZZ ZZZZZZZZZZZZZZZZZZZZZZZ ZZZZZZZZZZZZZZZZZZZZZ ZZZZZZZZ",
"ZZZZZZZZZ ZZZZZZZZZZZZZZZZZZZZZZZ ZZZZZZZZZZZZZZZZZZZZZ ZZZZZZZZ",
"ZZZZZZZZ  ZZZZZZZZZZZZZZZZZZZZZZZ ZZZZZZZZZZZZZZZZZZZZZ  ZZZZZZZ",
"ZZZZZZZ  ZZZZZZZZZZZZZZZZZZZZZZZ   ZZZZZZZZZZZZZZZZZZZZZ ZZZZZZZ",
"ZZZZZZ    ZZZZZZZZZZZZZZZZZZZZ   V  ZZZZZZZZZZZZZZZZZZZ   ZZZZZZ",
"       VV                      VVVV  ZZZZZZZZZZZZZZZZZ  V       ",
"VVVVVVVVVV  VVVVVVVVVVVVVVVVVV VVVVV  ZZZZZZZZZZZZ     VVVVVVVVV",
"VVVVVVVVVVV VVVVVVVVVVVVVVVVVV VVCCVV              VVVVVVVVVVVVV",
"VVVVVVVVVVV VVVVVVVVVVVVVVVVVV VCCCCVVVVVVVVVVVVVV VVVVVVVVVVVVV",
"___________ C_____________CCCC CCCCCVVVVVVVVVVVVVV VVVVV________",
"___________ CCCCCCCCCCCCCCCCCC CCCCCC___________CC __`````````__",
"___________ CCCCCCCCCCCCCCCCCC CCCCCCCCCCCCCCCC_CC _``__________",
"___________ CCCCCCCCCCCCCCCCCC CCCCCCCCCCCCCCCC_CC ``___________",
"___________ CCCCCCCCCCCCCCCCCC CCCCCCCCCCCCCCCCCCC `____________",
"___________ CCCCCCCCCCCCCCCCCC CCCCCCCCCCCCCCCCCCC _____________",
"___________  CCCCCCCCCCCCCCCC   CCCCCCCCCCCCCCCCCC _____________",
"__________    CCCCCCCCCCCCCC  c CCCCCCCCCCCCCCCCC   ____________",
"     ____  cc               &&&  CCCCCCCCCCCCCCC  c             ",
"cccc  __  ccccccccccc    cc &(&   CCCCCCCCCCCCC  ccc ccccccccccc",
"bAAcc    ccccccccccccc  cc.$1081$.              cccc cccAbAAAAAb",
"bbAAcc cccmAAAmmAAAAmcc c+5ttggtt5+cccccc cccccccAAm bAAAbbbbbbb",
"bbbbbb mmmmmmmmmmmmmmmm o3wyFPPFyw3oAAAbb mmAAmmmAmm bbbbbbbbbbb",
"bbbbbb mmmmmmmmmmmmmmmm %epKISIIJuq#bbbbb mmmmmmmmmm bbbbbbbbbbb",
"bbbbbb mmmmmmmmmmmmmmmm 2fGUISQSIDh>bbbb   mmmmmmmmm bbbbbbbbbbb",
"bbbbbb mmmmmmmmmmmm     7fLIIS))SId9bbb  v  mmmmmmmm  bbbbbbbbbb",
"   bb       mmmmm   zzz 7fLIIS)[SId9bb  vvv  mmmmmm    bbbbb    ",
"zz    vvvvv       zzMMMM2fGUI/SS/Dh>    vvvv        vv       MMz",
"MMMz vvMMMMMMvv zzzzzzzz%epKIW~^Wuq#MMz  vvMMMMvv vMMvvMMM zMMzz",
"zzMz vvvvvvvvvv zzzzzzzzX;wiHY!!Yi;XzMMz vvvvvMMv vvvvvvvM zzzzz",
"zzzz  vvvvvvvvv zzzzzzzzzO4rsREER:Ozzzzz vvvvvvvv vvvvvvv   zzzz",
"zzz   vvvvvvvv  zzzzzzzzzz.@<aTTa.zzzzzz vvvvvvv   vvvvvv l  zzz",
"    l  vvvvvv     zzzzzzzz    66zzzzzzz                   ll    ",
" lxxxx        lll          lll**        llll llllllllll lllllll ",
" llllxll  lllxxxxxxx llxxxxxxx,*l llxxxxxxxl lxxxxxxxxl lxxxxxx ",
" lllllll llllllllllx lllllllll,,l llllllllxl llllllllxl llllllx ",
"  llllll lll    lll   llllllll**   lllllllll   lllllll   llllll ",
"j            nj lll n         ** j  lllllll  n         n        ",
"jn  =jnnnnnnnnj     nnnj=jnnnnnnnjj         nnjjjjj=jnnnnjj==jnn",
"jnnn=jjjjjjjjjjjj=jjjjjj=jjjjjjjjjjjj=jjjjnnnjjjjj==jjjjjjj==jjj",
"===========================j======jj===jjjjjjjjjj============jjj",
"===k=======kk===kkkk-k===k===kk-k====k============kkkkk-kkkk====",
"--kkkkkk---kkkkkkkk--kkkkkkkkkk-kkkkkkkk-kkkkkkkkkkkk----kkkkkk-",
"B-kk---k-B--kkkk----B--kkkk------kkkkk-------kkkkk----BB---kkk--",
"B--------BB------BBBBB------BB---------BBBBB-------BBBBBBB-----B"
};
