/* XPM */
static char *result[] = {
/* columns rows colors chars-per-pixel */
"64 64 52 1 ",
"  c black",
". c #0C0603",
"X c #170D06",
"o c #2E190D",
"O c #3B2715",
"+ c #081526",
"@ c #051B33",
"# c #482714",
"$ c #472E16",
"% c #4B2915",
"& c #543614",
"* c #60341B",
"= c #69391D",
"- c #713D1C",
"; c #082340",
": c #122A44",
"> c #13314B",
", c #183851",
"< c #1D3F58",
"1 c #203E58",
"2 c #1D4056",
"3 c #254A5D",
"4 c #244362",
"5 c #2F5363",
"6 c #315B73",
"7 c #404143",
"8 c #68734E",
"9 c #475766",
"0 c #4A5E65",
"q c #4C656C",
"w c #5A6E6F",
"e c #456B7E",
"r c #BA2525",
"t c #87481B",
"y c #8F5F1E",
"u c #9A5119",
"i c #905F1F",
"p c #AE5B18",
"a c #A2761E",
"s c #976320",
"d c #B78D1E",
"f c #BD9D17",
"g c #C2B117",
"h c #E8A20C",
"j c #E3CC0F",
"k c #E9D70E",
"l c #FFF60A",
"z c #558184",
"x c #67999A",
"c c #B7B8A6",
"v c #C5C4A8",
"b c white",
/* pixels */
"9@@@@@9999999@@@@@@@99999@@@@@@@@@99@@@@@@99999@@@@@@99@@@@@@@@9",
"@@:::@@@99@@@@:::::@@@@@@@:::::@@@@@@::::@@9@@@@::::@@9@:@@@::@9",
"@::::::@@@@::::::::::::@::::::::@::::::::::@@::::::::@@@::::::@@",
"++++::::@:::::++++++++++++:++++:@::+++:+++:@::::+++::+++++++:+++",
";;;++++++++++++;;;;;;;;;;+++;;++++++;+++++++++++++++++++++++++++",
";;;++;;;;;;;++;;;;;444;;;;+;;;;;;;;;;;;+;;;;;;+;;;;;;;;;;;;+444;",
"44;++;;4444;+;;;;;44         ;;4444444;+;444     ;44444444;+  4;",
"        4         4  >>>>>>>  ; OO         4 >>> ;4            ;",
" >>>>>>   >>>>>>>   >>>>>>>>>   OO>>>>>>>>   >>>    >>> >>>>>>  ",
" <>>>>>> ><>>>>>>>> ><>>>>>>>> >$$>>>>>>>>> <>>>>>>>>>> >>>>>>> ",
" <<<<<<> ><<<<<<<<> ><<<<<<<>> >O$<<<<<<<>> <<<<<<<>>>  >><>>>> ",
" >>>>>>> >>>>>>>>>> >>>>        OO>>>          >>>        <<<<> ",
"    >>                   ,,,,,,,&&    ,,,,,,,,     222222  >    ",
",,,  > 222222   2222222 ,,,,,,,&is&*%o.,,,,,,,,,  22222222   ,,,",
",,,,   2222222 22222222 ,,,,,,Xyddy===#X,,,,,,,, 222222222  ,,,,",
",,,,, 62222222 26622222 ,66,,.#aggaut-=#.,,,,,,, 2222222222 ,6,,",
",,66, 66622662 22666622  ,666o=fkjfppu-=o,,,,,,, 2266666622 ,666",
",66       22        2222     %=jrrjpppt=%666,,       22222    ,,",
"    33333    555555  222  333*=rblrpppu=*,,,   55555       33   ",
"3333333333  55555555  2  3333*=rllrpppu=*    555555555555 333333",
"33333333333 555555555   33333%=trrhrhpt=%5555555555555555 333333",
"33333333333 5555555555 333333o=-uppppu-=o5555555555555555 333333",
"33333333333 55e555ee55 33eeee.#=-tuut-=#.5555555555555555 333333",
"3333333eee3 5ee1111111 1111111X#======#X 115eeee55eee5111 11ee33",
"3eeeee3e111 1111               .o%**%o.1  1111111111111    11ee3",
"11111111111 111  qqqqqqqqqqqqq  1111111    11111111111  zz  1111",
"             1  qqqqqqqqqqqqqqq  11                11  zzzz     ",
"zzzzzzzzzzzz   qqqqqqqqqqqqqqqqq 1  qqqqqqqqqqqqqq    zzzzzzzzzz",
"zzzzzzzzzzzzz qqqqqqqqqqqqqqqqqq   qqqqqqqqqqqqqqqq  zzzzzzzzzzz",
"zzzzzzzzzzzzz qqqqqqqqqqqqqqqqqqq qqqqqqqqqqqqqqqqqq zzzzzzzzzzz",
"zzzzzzzzzzzzx qqqqqqqqqqqqqqqqqqq q8qqqqqqqqqqqqqqqq zzzzzzzzzzz",
"zzzzzzzzzzzxx qqzqqqqqqqqqqqqqqqq qqqqqqqqqqqqqqqqqq zzzzzzzzzzz",
"zzzzzzzzzzxxz qqzqqqqqqqqqqqqqqqq qqqqqqqqqqqqqqqqqq zzzzzzzzzzz",
"zzxxxxxxxxxzz qqzzzzzzzzzzzqqqqqq qqqqqqqqqqqqqqqqqq zzzzzzzzzzz",
"zzzzzzzz00000 00000000000000qqqqq qqqqzzzzzzzzzzzzzq zzzzzzzzzzz",
"0000000000000 00000000000000qqqq0 000000000000000000 00000000000",
"0000000000000              00qq00 000000000000000000 00000000000",
"000000000     wwwwwwwwwwww  00000 000000000000000000  0000000000",
"       0  wwwwwwwwwwwwwwwww  0000                      00       ",
"wwwwww   wwwwwwwwwwwwwwwwwww  0   wwwwwwwwwwwwwwwwwwww    wwwwww",
"wwwwwww wwwwwwwwwwwwwwwwwwwww   wwwwwwwwwwwwwwwwwwwwwww  wwwwwww",
"wwwwwww  wwwwwwwwwwwwwwwwwwwww wwwwwwwwwwwwwwwwwwwwwww  wwwwwwww",
"wwwwwwww wwwwwwwwwwwwwwwwwwwww wwwwwwwwwwwwwwwwwwwwwww wwwwwwwww",
"wwwwwwww wwwwwwwwwwwwwwwwwwwww wwwwwwwwwwwwwwwwwwwwwww wwwwwwwww",
"wwwwwwww wwwwwwwwwwwwwwwwwwwww wwwwwwwwwwwwwwwwwwwwwww wwwwwwwww",
"wwwwwwww wwwwwwwwwwwwwwwwwwwww wwwwwwwwwwwwwwwwwwwwwww wwwwwwwww",
"wwwwwwww wwwwwwwwwwwwwwwwwwwww wwwwwwwwwwwwwwwwwwwwwww wwwwwwwww",
"wwwwwwww wwwwwwwwwwwwwwwwwwwww wwwwwwwwwwwwwwwwwwwwwww wwwwwwwww",
"wwwwwwww wwwwwwwwwwwwwwwwwwwww wwwwwwwwwwwwwwwwwwwwwww wwwwwwwww",
"ccccccww wwvvvvvvvvvvvvvwwwwww wwvvwwwwwwwvvvvvvvvvwww wwwwwwccc",
"cccccccw wvvvvvvvvvvvvvvvvvwww wvvvvvvwwvvvvvvvvvvvvvw wwwwccccc",
"cccccccc vvvvvvvvvvvvvvvvvvvvw vvvvvvvvvvvvvvvvvvvvvvv ccccccccc",
"cccccccc vvvvvvvvvvvvvvvvvvvvv vvvvvvvvvvvvvvvvvvvvvvv ccccccccc",
"cccccccc vvvvvvvvvvvvvvvvvvvvv vvvvvvvvvvvvvvvvvvvvvvv ccccccccc",
"cccccccc vvvvvvvvvvvvvvvvvvvvv vvvvvvvvvvvvvvvvvvvvvvv ccccccccc",
"cccccccc vvvvvvvvvvvvvvvvvvvvv vvvvvvvvvvvvvvvvvvvvvvv ccccccccc",
"cccccccc vvvvvvvvvvvvvvvvvvvvv vvvvvvvvvvvvvvvvvvvvvvv ccccccccc",
"cccccccc vvvvvvvvvvvvvvvvvvvvv vvvvvvvvvvvvvvvvvvvvvvv ccccccccc",
"cccccccc vvvvvvvvvvvvvvvvvvvvv vvvvvvvvvvvvvvvvvvvvvvv  cccccccc",
"cccccccc vvvvvvvvvvvvvvvvvvvvv vvvvvvvvvvvvvvvvvvvvvvvv cccccccc",
"ccccccc  vvvvvvvvvvvvvvvvvvvvv vvvvvvvvvvvvvvvvvvvvvvvv cccccccc",
"cccccc    vvvvvvvvvvvvvvvvvvvv   vvvvvvvvvvvvvvvvvvv    cccccccc",
"ccc    77  vvvvvvvvvvvvvvvvvv  7  vvvvvvvvvvvvvvvvvv  7   cccccc",
"    777777                    777                    7777       "
};
