/* XPM */
static char *result[] = {
/* columns rows colors chars-per-pixel */
"64 64 89 1 ",
"  c black",
". c #0A0501",
"X c #0E0701",
"o c #0D0502",
"O c #160807",
"+ c #150D0A",
"@ c #271A0A",
"# c #2A1A0D",
"$ c #2B190F",
"% c #2F1C0E",
"& c #311A0C",
"* c #3B2715",
"= c #081526",
"- c #051B33",
"; c #462512",
": c #4B2413",
"> c #4C2715",
", c #472E16",
"< c #4F2B11",
"1 c #492815",
"2 c #4A2B16",
"3 c #432719",
"4 c #472519",
"5 c #49291A",
"6 c #513412",
"7 c #5D331B",
"8 c #5F371D",
"9 c #623317",
"0 c #633617",
"q c #693817",
"w c #63371C",
"e c #66371D",
"r c #65391C",
"t c #693A1E",
"y c #6E3D1F",
"u c #733D19",
"i c #713C1C",
"p c #713C1D",
"a c #4C3A24",
"s c #673B20",
"d c #663A21",
"f c #653C20",
"g c #6B3823",
"h c #693B23",
"j c #082340",
"k c #122A44",
"l c #13314B",
"z c #183851",
"x c #1D3F58",
"c c #203E58",
"v c #1D4056",
"b c #254A5D",
"n c #244362",
"m c #2F5363",
"M c #315B73",
"N c #404143",
"B c #475766",
"V c #4A5E65",
"C c #4C656C",
"Z c #5A6E6F",
"A c #456B7E",
"S c #BA2525",
"D c #8C4511",
"F c #874719",
"G c #8B4919",
"H c #88491E",
"J c #995117",
"K c #9A511C",
"L c #9E511D",
"P c #9E531C",
"I c #AC5B19",
"U c #AD5D1E",
"Y c #A6791E",
"T c #925E24",
"R c #9C632E",
"E c #BA8B1F",
"W c #B8A018",
"Q c #EE9E11",
"! c #C7B014",
"~ c #EDCA0C",
"^ c #E8D70E",
"/ c #F0CC1E",
"( c #E2E609",
") c #FFF60A",
"_ c #558184",
"` c #67999A",
"' c #B7B8A6",
"] c #C5C4A8",
"[ c azure",
/* pixels */
" ''''''''''''''ZZZZZZZZZZ VVV________ cbbbbbb zzzzz      njj=--B",
" ''''''''''''''ZZZZZZZZZZ VVV________ cAbbbbb Mzzzz lxxl njj=k--",
" ''''''''''''''ZZZZZZZZZZ VVV_`______ cAbbbbb MMzzz lxll jjj=kk-",
"  '''''''''''''ZZZZZZZZZZ VVV_`______ cAbbbbb  Mzz  lxll ====kk-",
"N '''''''''''''ZZZZZZZZZZ VVV_`______ cAbbbbbb zz  llxll ===kkk-",
"N '''''''''''''ZZZZZZZZZZ VVV_`______ cAbbbbbb    lllxll jj=kk--",
"N  '''''''''''ZZZZZZZZZZ  VVV_`______ cbbbbbbb MM   lxll jj=kk-B",
"NN  '''''''''ZZZZZZZZZ   VVVV_`______ cAAbbbbb Mvvv lll  nj=k--B",
"NN                     Z  VVVV`______ ccAbbbbb Mvvv     nnj=--BB",
"N  ]]]]]]]]]]ZZZZZZZZZZZZ  VVV`______ ccAbbbb  vvvv lll  nj=k-BB",
"  ]]]]]]]]]]]]ZZZZZZZZZZZZ VVV``_____ ccbbbb  vvvvv lxxl nj=k--B",
" ]]]]]]]]]]]]]]ZZZZZZZZZZZ VVV_``____         vMvvv lxll jj=kk-B",
" ]]]]]]]]]]]]]]ZZZZZZZZZZZ VVV__``__  ccmmmmm  Mvvv lxll ===kk-B",
" ]]]]]]]]]]]]]]ZZZZZZZZZZZ           cccAmmmmm vvv  lxll j==kk--",
" ]]]]]]]]]]]]]]ZZZZZZZZZZZZ VVCCCCCC  ccAAmmmm      lxll jj==kk-",
" ]]]]]]]]]]]]]]ZZZZZZZZZZZZ VVCCCCCCC  ccmmmmm vvv  lxll jjj=kk-",
" ]]]]]]]]]]]]]]ZZZZZZZZZZZZ VV___CCCCC  cmmmmm vMvv lxll jjj=kk-",
" ]]]]]]]]]]]]]]ZZZZZZZZZZZZ VV_CCCCCCCC cmmmmm MMvv lxl  jjj=kk-",
" ]]]]]]]]]]]]]]ZZZZZZZZZZZZ VV_CCCCCCCC cAmmmm Mvvv lll nnjj=kk-",
" ]]]]]]]]]]]]]]ZZZZZZZZZZZZ VV_CCCCCCCC cAmmm  Mvvv      nnj=k--",
" ]]]]]]]]]]]]]]ZZZZZZZZZZZZ VV_CCCCCCCC cmmm  vMvvv llll  nj=k-B",
" ]]]]]]]]]]]]]]ZZZZZZZZZZZZ VV_CCCCCCCC cmm  vvvvvv lxxll nj=k-B",
" ]]]]]]]]]]]]]]ZZZZZZZZZZZZ VV_CCCCCCCC     vvvvvvv lxlll jj=k-B",
" ]]]]]]]]]]]]]]ZZZZZZZZZZZZ VV_CCCCCCCC cbb  vv     lxlll jj=--B",
" ]]]]]]]]]]]]]ZZZZZZZZZZZZZ VV_CCCCCCCC cbbb    zzz  xlll jj=k-B",
" ]]]]]]]]]]]]]ZZZZZZZZZZZZZ VV_CCCCCCCC cAbbb  zMzzz xlll j==k--",
" ]]]]]]]]]]]]]ZZZZZZZZZZZZ  VV_CCCCCCCC cAbbbb MMzzz xlll ==kkk-",
" ]]]]]]]]]]]]ZZZZZZZZZZZZ  VVVCCCCCCCCC cAbbbb Mzzzz xlll j==kk-",
" ]]]]]]]]]]]]ZZZZZZZZZZZ  VVCCCCCCCCCCC co#>99>#Xzzz lll  jj=kk-",
"  ]]]]]]]]]]ZZZZZZZZZZZ  VVCCCCCCCCCCCC +3qhddhq;Ozz ll  jjj=kk-",
"N                       VVVCCCCCCCCCCC .5wuDIIDui:.z    jjj==kk-",
"NN ]]]]]]]]]]ZZZZZZZZZZ  VVVCCCCCCCCC  $tyJISS/WYRaz ll  nj=kk--",
"N  ]]]]]]]]]]]ZZZZZZZZZZ VVVVCCCCCC    1tFIS)[S^!ET6**,**nj=----",
"  ]]]]]]]]]]]]]ZZZZZZZZZ            c&&8gPIQ))S~!ET6*,,**nj=kk--",
" ]]]]]]]]]]]]]]ZZZZZZZZZZ VVVCCCCCC  &(0gPSSSS/WYRa lxll nj=kk-B",
" ]]]]]]]]]]]]]ZZZZZZZZZZZ VVVCCCCCCC &&1tFIIIIIIHs< lxll nj==k-B",
" ]]]]]]]]]]]]]ZZZZZZZZZZZ VVVCCCCCCCC  $tyKUIIUKir@ lxll njj=k--",
" ]]]]]]]]]]]]]ZZZZZZZZZZZ VVVCCCCCCCC c.5wpGLLGpw4.  xll nj==kk-",
" ]]]]]]]]]]]]ZZZZZZZZZZZZ VVV_CCCCCCC cc+3effffe;Ozz xll jj=kkk-",
" ]]]]]]]]]]]]ZZZZZZZZZZZZ VVV_CCCCCCC  cco%2772%Xzzz xll ====kk-",
" ]]]]]]]]]]]]]ZZZZZZZZZZZ VVV_CCCCCCC         Mzzzzz xll jj==kk-",
" ]]]]]]]]]]]]]ZZZZZZZZZZZ VVV_CCCCCCC   cmmm zMzzzzz lll nj==k--",
" ]]]]]]]]]]]]]]ZZZZZZZZZZ VVV_CCCCCCC  ccmmm zMzzzzz ll  nj=kk-B",
" ]]]]]]]]]]]]]]ZZZZZZZZZZ VVV_CCCCCCC ccmmmm zMzzzzz    nnj=--BB",
" ]]]]]]]]]]]]]]ZZZZZZZZZZ VVV_CCCCCCC ccAmmm  zzzzzz xx   j=k--B",
" ]]]]]]]]]]]]]]ZZZZZZZZZZ VVV_CCCCCCC ccAmmmm zzzzzz xlll j=kk-B",
" ]]]]]]]]]]]]]]ZZZZZZZZZZ VVV_CCCCCCC ccAmmmm  zzzz  xlll ==kk-B",
" ]]]]]]]]]]]]]]ZZZZZZZZZZ VVV_CCCCCCC ccAmmmmm zzzz lxlll j=kk--",
" ]]]]]]]]]]]]]]ZZZZZZZZZZ VVV_CCCCCCC ccmmmmmm      lxl   j==kk-",
" ]]]]]]]]]]]]]]ZZZZZZZZZZ VVV_CCCCCCC ccmmmmmm vvv  lxl jjj==kk-",
" ]]]]]]]]]]]]]]ZZZZZZZZZZ VVV_CCCCCC  ccAmmmmm vvvv  xl nnj==kk-",
" ]]]]]]]]]]]]]ZZZZZZZZZZZ VVVCCCCCC  cccAmmmmm Mvvvv ll  nj=kkk-",
"   ]]]]]]]]]]]ZZZZZZZZZZZ            cccAmmmm  Mvvvv lll nj=kk--",
"N  ]]]]]]]]]]ZZZZZZZZZZZZ  VV_______  ccmmmmm vMvvvv lll nj==--B",
"NN ]]                  Z  VVV________  ccmmmm vMvvvv  ll nj==-BB",
"N     '''''''ZZZZZZZZZ   VVVV_________  cmmmm vMvvvv     nj==---",
"N '''''''''''ZZZZZZZZZZ  VVVV__________ cmmmm vMvvvv lll nj==kk-",
"  '''''''''''ZZZZZZZZZZZ  VVV__________       vvvvv  lll nj==k--",
" ''''''''''''ZZZZZZZZZZZZ VVV_________  cbbbb  vv   xxll jj==k--",
" '''''''''''''ZZZZZZZZZZZ VVV________  ccbbbbb     lxlll ====k--",
" '''''''''''''ZZZZZZZZZZZ VVV________ ccAbbbbb zzz  xlll  n=kkk-",
" ''''''''''''''ZZZZZZZZZZ VVV________ cAAbbbb  MMzz xlll  n==kk-",
" ''''''''''''''ZZZZZZZZZZ VVV________ cAbbbbb zMzzz lll  nn==---",
" ''''''''''''''ZZZZZZZZZZ VVV________ cbbbbbb zMzzz     jjj==-BB"
};
